<?xml version="1.0" encoding="UTF-8" standalone="no"?>
<!DOCTYPE svg PUBLIC "-//W3C//DTD SVG 1.1//EN" "http://www.w3.org/Graphics/SVG/1.1/DTD/svg11.dtd">
<svg width="100%" height="100%" viewBox="0 0 1827 500" version="1.1" xmlns="http://www.w3.org/2000/svg" xmlns:xlink="http://www.w3.org/1999/xlink" xml:space="preserve" xmlns:serif="http://www.serif.com/" style="fill-rule:evenodd;clip-rule:evenodd;stroke-linecap:round;stroke-linejoin:round;stroke-miterlimit:1.5;">
    <g id="floor-plan-base">
        <g id="floor">
            <rect x="8.417" y="13.787" width="1816.1" height="451.01" style="fill:#efc462;"/>
        </g>
        <g id="walls">
            <path d="M4.167,9.906l0.26,454.192l318.124,-1.572l-13.078,-36.581l-74.256,-0.065l-0.561,-82.28l-86.055,-0.178l-0.213,90.689l-132.386,0.833l-0.233,-135.238l218.549,0.087l0.031,-71.157l-29.757,-0.096l-0.085,47.305l-177.078,0.067l-0.09,-224.229l59.238,-0.035l283.477,-0.277l-0.131,11.808l35.325,0.197l0.101,-11.915l141.668,-0.085l0.155,13.101l35.345,-0.022l0.088,-12.953l141.675,0.038l0.246,16.666l35.101,-0.141l-0.037,-16.586l248.176,0.134l0.052,200.375l35.287,0.21l0.317,-200.782l247.864,0.024l1.829,198.311l47.08,0.085l-1.661,-198.298l200.521,0.106l0.459,247.864l82.397,-0.177l0.086,-35.276l-35.603,-0.069l-0.046,-212.454l188.898,-0.056l0.39,212.704l-23.883,0.008l0.142,35.25l23.663,-0.03l0.065,165.445l-200.942,-0.017l-30.739,-11.837l-205.669,0.157l0.88,-47.415l-47.4,-0.216l-0.791,47.48l-247.813,-0.093l-0.044,-47.172l-59.01,-0.029l0.157,35.327l-224.634,0.212l0.009,-23.717l-26.033,0.124l0.056,47.161l-68.452,0.013l-0.084,-35.522l-302.323,-3.491l-9.449,36.614l252.756,2.418l0,11.755l401.575,0l0,17.717l484.252,0l330.709,1.181l0,-491.339l-1818.465,5.74Z" style="fill:#cab391;stroke:#cab391;stroke-width:8.33px;"/>
        </g>
    </g>
    <g id="freight-elevator">
        <path id="lift-cables" d="M1598.222,410.507l23.622,-63.82l53.065,-23.622l0.147,-47.244l2.3,0l0,47.244l54.331,20.079l20.079,64.961" style="fill:none;stroke:#6f4a34;stroke-width:4.17px;"/>
        <rect id="lift-frame-right" x="1615.073" y="317.815" width="14.313" height="119.47" style="fill:#805a43;"/>
        <rect id="lift-frame-left" x="1725.642" y="317.815" width="14.313" height="119.47" style="fill:#805a43;"/>
        <g id="elevator-cargo">
            <ellipse id="pile-left" cx="1699.206" cy="360.269" rx="15.945" ry="7.677" style="fill:#f4cf83;"/>
            <ellipse id="pile-right" cx="1653.438" cy="360.329" rx="15.945" ry="7.677" style="fill:#f4cf83;"/>
            <path id="bag-left" d="M1672.631,381.824l0,24.213c0,5.052 -4.102,9.154 -9.154,9.154l-18.307,0c-5.052,0 -9.154,-4.102 -9.154,-9.154l0,-24.213c0,-5.052 4.102,-9.154 9.154,-9.154l18.307,0c5.052,0 9.154,4.102 9.154,9.154Z" style="fill:#b18850;"/>
            <path id="bag-top-left" d="M1680.895,360.353l37.205,-0.025c0.706,-0 1.338,0.435 1.589,1.095c0.251,0.659 0.069,1.405 -0.458,1.875l-9.296,8.274c-0.311,0.277 -0.713,0.43 -1.129,0.43l-18.602,0.012c-0.416,0 -0.818,-0.152 -1.129,-0.429l-9.307,-8.262c-0.528,-0.468 -0.711,-1.214 -0.461,-1.874c0.25,-0.66 0.882,-1.096 1.588,-1.097Z" style="fill:#b18850;"/>
            <path id="bag-top-right" d="M1635.13,360.353l37.205,-0.025c0.706,-0 1.338,0.435 1.589,1.095c0.251,0.659 0.069,1.405 -0.458,1.875l-9.296,8.274c-0.311,0.277 -0.713,0.43 -1.129,0.43l-18.602,0.012c-0.416,0 -0.818,-0.152 -1.129,-0.429l-9.307,-8.262c-0.528,-0.468 -0.711,-1.214 -0.461,-1.874c0.25,-0.66 0.882,-1.096 1.588,-1.097Z" style="fill:#b18850;"/>
            <path id="bag-right" d="M1718.104,381.824l0,24.213c0,5.052 -4.102,9.154 -9.154,9.154l-18.307,0c-5.052,0 -9.154,-4.102 -9.154,-9.154l0,-24.213c0,-5.052 4.102,-9.154 9.154,-9.154l18.307,0c5.052,0 9.154,4.102 9.154,9.154Z" style="fill:#b18850;"/>
            <path id="cord-right" d="M1709.246,372.154l0,0.738c0,0.204 -0.165,0.369 -0.369,0.369l-19.341,0c-0.204,0 -0.369,-0.165 -0.369,-0.369l0,-0.738c0,-0.204 0.165,-0.369 0.369,-0.369l19.341,0c0.204,0 0.369,0.165 0.369,0.369Z" style="fill:#805a43;"/>
            <path id="cord-left" d="M1663.478,372.154l0,0.738c0,0.204 -0.165,0.369 -0.369,0.369l-19.341,0c-0.204,0 -0.369,-0.165 -0.369,-0.369l0,-0.738c0,-0.204 0.165,-0.369 0.369,-0.369l19.341,0c0.204,0 0.369,0.165 0.369,0.369Z" style="fill:#805a43;"/>
        </g>
        <rect id="lift-base" x="1598.222" y="405.741" width="157.934" height="14.758" style="fill:#a57c51;"/>
    </g>
    <g id="funace-area">
        <path id="furnace-structure" d="M1703.34,105.741l40.157,-0l0,93.307l-127.559,0l0,-93.307l37.795,0l0,-46.063l49.606,0l0,46.063Z" style="fill:#a16a3e;"/>
        <clipPath id="_clip1">
            <path id="furnace-structure1" serif:id="furnace-structure" d="M1703.34,105.741l40.157,-0l0,93.307l-127.559,0l0,-93.307l37.795,0l0,-46.063l49.606,0l0,46.063Z"/>
        </clipPath>
        <g clip-path="url(#_clip1)">
            <path id="fireplace-frame" d="M1712.789,186.056c0,0 -67.519,-0.281 -67.323,0c0.196,0.281 0,-46.063 0,-46.063c0,0 29.44,-29.002 67.323,0l-0,46.063Z" style="fill:#74756d;"/>
            <path id="fireplace" d="M1706.883,181.331c0,0 -56.858,-0.236 -56.693,0c0.165,0.236 -0,-38.975 -0,-38.975c0,0 24.792,-23.852 56.693,0.422l-0,38.553Z" style="fill:#e7bb49;"/>
            <path id="flames" d="M1660.82,181.332c0,0 -8.004,-10.853 -1.181,-20.079c0,0 7.498,-5.566 4.724,-12.992c0,0 4.972,0.663 5.906,7.087c0,0 11.256,-8.558 8.268,-15.354c0,0 9.532,8.535 5.906,15.354c0,0 5.833,-2.673 4.724,-9.449c0,0 15.751,16.435 5.906,31.89c0,0 -3.109,3.607 -2.362,3.543l-5.906,0c0,0 -0.255,-5.643 -1.181,-8.268c-1.181,-3.346 -8.451,-6.733 -5.906,-11.811c0,0 -13.008,9.41 -10.63,20.079l-8.268,0Z" style="fill:#db5a06;"/>
        </g>
        <path id="funace-door" d="M1760.033,186.058c0,0 -47.388,-3.883 -47.244,-3.647c0.145,0.236 0,-38.68 0,-38.68c0,0 21.692,-24.353 49.606,0l-2.362,42.327Z" style="fill:#74756d;"/>
        <path id="fireplace-door-shade" d="M1760.033,186.058c0,0 -47.388,-3.883 -47.244,-3.647c0.145,0.236 0,-38.68 0,-38.68l47.244,42.327Z" style="fill:#696b62;"/>
    </g>
    <g id="grain-mounds-container">
        <g id="pile5">
            <path d="M480.899,402.198c0,0 33.716,10.718 37.795,11.811c0,0 18.369,4.541 24.803,3.543c0,0 13.062,6.022 18.898,7.087c0,0 18.685,2.856 25.984,0c0,0 15.499,-6.127 17.717,-8.268c0,0 35.729,-1.713 41.339,-2.362c0,0 3.401,1.774 1.181,-7.087c0,0 -38.307,-46.625 -47.244,-50.787c0,0 -15.481,-11.156 -34.252,-7.087c0,0 -18.025,5.456 -25.984,17.717c0,0 -8.869,-1.952 -22.441,7.087l-37.795,28.346Z" style="fill:#f4cf83;"/>
            <path d="M571.844,349.049c0,0 39.391,53.072 34.252,63.78c0,0 38.019,2.994 41.339,-1.181c0,0 12.831,0.285 -9.449,-17.717c0,0 -39.97,-46.619 -55.512,-43.701l-10.63,-1.181Z" style="fill:#bd8e3c;"/>
            <path d="M526.396,370.308c0,0 41.892,40.52 32.456,49.732c0,0 7.661,5.114 15.748,3.336c0,0 17.071,0.127 19.685,-5.824c0,0 -1.495,-6.894 -5.532,-11.811c0,0 -27.252,-24.098 -37.645,-30.004c-7.333,-4.167 -24.713,-5.429 -24.713,-5.429Z" style="fill:#bd8e3c;"/>
        </g>
        <g id="pile4">
            <path d="M423.025,352.592c0,0 22.271,-1.425 23.622,-3.543c0,0 32.51,1.113 35.433,-2.362c0,0 -12.856,-24.339 -26.537,-29.528c0,0 -20.761,-22.992 -26.612,-17.717c0,0 -30.061,-31.321 -47.244,-23.622c0,0 -70.861,45.332 -67.825,70.866c0,0 38.79,9.149 50.108,5.906l59.055,0Z" style="fill:#f4cf83;"/>
            <path d="M381.686,285.144c0,0 5.107,-5.487 23.622,2.488c0,0 13.571,4.487 17.717,15.25c0,0 -23.435,15.451 -25.984,19.002c-2.55,3.551 9.941,-13.997 12.992,-15.354c0,0 -5.321,-10.641 -11.811,-9.449c0,0 -22.368,-7.51 -16.535,-11.811l0,-0.125Z" style="fill:#bd8e3c;"/>
            <path d="M436.017,306.529c0,0 20.387,8.255 30.709,25.28c0,0 11.275,11.867 14.173,13.789c0,0 -24.151,5.205 -31.89,2.578c0,0 7.684,-1.874 17.717,-2.578c0,0 10.602,0.564 7.087,-1.149c0,0 -38.709,-35.848 -37.795,-37.92Z" style="fill:#bd8e3c;"/>
            <path d="M388.773,331.332c0,0 -13.579,16.936 -15.354,18.898c0,0 -7.12,1.171 -9.449,1.181c-2.329,0.011 6.764,-1.119 24.803,-20.079Z" style="fill:#bd8e3c;"/>
        </g>
        <g id="pile3">
            <path d="M308.458,147.08c0,0 -20.079,1.185 -43.701,33.071c0,0 -31.61,23.578 -31.89,31.89c0,0 24.489,13.358 46.063,9.449c0,0 36.403,4.948 49.606,0c0,0 38.16,-1.128 43.701,-9.449c0,0 -6.426,-20.274 -20.079,-26.656c0,0 -9.89,-20.91 -28.346,-25.312c0,0 -11.213,-14.652 -15.354,-12.992Z" style="fill:#f4cf83;"/>
            <path d="M309.049,147.08c5.512,2.756 32.506,14.553 41.929,36.614c0,0 17.899,12.625 19.488,22.441c0,0 12.563,9.65 2.953,9.449c0,0 -23.316,7.531 -31.89,4.724c0,0 -12.333,2.414 -11.811,-1.181c0,0 6.19,-13.859 3.543,-20.079c0,0 -9.779,-28.038 -15.354,-31.89c-0.414,0.984 -14.37,-22.835 -8.858,-20.079Z" style="fill:#bd8e3c;"/>
            <path d="M412.395,310.072l-8.268,0" style="fill:none;"/>
        </g>
        <g id="pile2">
            <path d="M608.156,122.277c0,0 -10.445,-3.192 2.123,-11.811c0,0 33.349,-41.549 57.265,-45.82c0,0 12.54,-6.984 50.551,22.198c0,0 44.031,36.5 17.922,35.433c0,0 -71.854,4.716 -82.677,2.663l-45.184,-2.663Z" style="fill:#f4cf83;"/>
            <path d="M702.946,123.458c0,0 35.749,2.407 38.976,-1.181c0,0 8.737,-4.275 -5.906,-17.717c0,0 -29.819,-38.452 -51.969,-37.795c0,0 -3.321,-3.717 -10.63,-2.362c0,0 -0.868,7.76 12.992,10.63c0,0 27.406,7.862 21.26,23.622c0,0 -11.373,21.31 -4.724,24.803Z" style="fill:#bd8e3c;"/>
        </g>
        <g id="pile1">
            <path d="M301.372,69.127c0,0 -11.016,-10.83 -22.441,1.181c0,0 -26.426,15.55 -33.071,29.528c0,0 -13.562,22.497 -21.26,24.803c0,0 -7.662,7.477 1.181,5.906c0,0 35.041,6.416 47.244,3.543c0,0 38.393,3.259 46.063,-3.543c0,0 17.956,-0.898 28.346,-1.181c0,0 14.098,1.216 3.543,-11.811c0,0 -12.335,-19.618 -22.441,-25.984c0,0 -20.524,-23.889 -27.165,-22.441Z" style="fill:#f4cf83;"/>
            <path d="M293.104,68.343c1.146,-1.029 16.568,-3.338 40.157,25.984c0,0 30.132,29.821 24.803,33.855c0,0 -14.414,3.033 -20.079,2.362c0,0 -21.224,1.128 -22.441,-1.966c0,0 4.461,-9.169 1.181,-14.173c0,0 -6.156,-18.824 -10.63,-24.803c0,0 -18.058,-16.711 -12.992,-21.26Z" style="fill:#bd8e3c;"/>
        </g>
    </g>
    <g id="wheel">
        <ellipse id="wheel-outer" cx="1444.679" cy="165.097" rx="67.138" ry="66.442" style="fill:#23201a;"/>
        <ellipse id="wheel-middle" cx="1445.015" cy="165.496" rx="60.437" ry="58.243" style="fill:#6b4826;"/>
        <rect id="wheel-spoke4" x="1442.818" y="109.483" width="6.424" height="114.026" style="fill:#d0b78e;"/>
        <path id="wheel-spoke3" d="M1488.601,128.436l-80.597,80.66l-4.544,-4.541l80.597,-80.66l4.544,4.541Z" style="fill:#d0b78e;"/>
        <path id="wheel-spoke2" d="M1503.069,169.216l-114.021,0.983l-0.055,-6.424l114.021,-0.983l0.055,6.424Z" style="fill:#d0b78e;"/>
        <path id="wheel-spoke1" d="M1484.786,208.434l-81.976,-79.257l4.465,-4.618l81.976,79.257l-4.465,4.618Z" style="fill:#d0b78e;"/>
        <ellipse id="wheel-center" cx="1445.063" cy="166.451" rx="14.454" ry="13.651" style="fill:#f7eed5;"/>
        <rect id="wheel-base" x="1383.134" y="226.467" width="125.793" height="10.142" style="fill:#23201a;"/>
    </g>
    <g id="transport-cart">
        <rect id="cart-base" x="830.505" y="358.76" width="47.244" height="7.087" style="fill:#849ba6;"/>
        <path id="cart-body-hand2" d="M806.883,303.249l16.435,54.281l-7.966,2.412l-16.435,-54.281l7.966,-2.412Z" style="fill:#849ba6;"/>
        <rect id="cart-body-hand" x="786.805" y="303.249" width="20.079" height="8.268" style="fill:#849ba6;"/>
        <ellipse id="cart-wheel-left" cx="821.942" cy="371.753" rx="15.059" ry="15.354" style="fill:#849ba6;"/>
        <ellipse id="cart-wheel-right" cx="883.655" cy="371.753" rx="14.173" ry="15.354" style="fill:#849ba6;"/>
        <circle id="cart-wheel-inside-left" cx="821.647" cy="372.343" r="11.22" style="fill:#f4cf83;"/>
        <circle id="cart-wheel-inside-right" cx="883.655" cy="371.753" r="11.22" style="fill:#f4cf83;"/>
        <path id="cart-pile1" d="M819.875,312.697c0,0 14.356,-21.313 34.252,-28.346c0,0 10.35,-6.914 29.528,7.087c0,0 17.725,17.705 15.354,22.441c0,0 -67.699,9.126 -79.134,-1.181Z" style="fill:#f4cf83;"/>
        <path id="cart-pile2" d="M861.214,283.17c0,0 13.566,-0.698 24.803,11.811c0,0 16.309,15.29 12.992,18.898c0,0 -22.208,5.315 -21.26,1.181c0,0 2.286,-16.83 -4.724,-21.26c0,0 -15.736,-7.895 -11.811,-10.63Z" style="fill:#bd8e3c;"/>
        <path id="cart-body" d="M818.694,311.516l82.677,0l-12.011,41.339l-58.655,0l-12.011,-41.339Z" style="fill:#849ba6;"/>
    </g>
    <g id="grain-pre-cleaner">
        <g>
            <path d="M95.197,109.667l6.118,-0.408l29.774,0.816l0,3.263l-31.405,1.224l-4.486,1.224l0,-6.118Z" style="fill:#bd8e3c;"/>
            <clipPath id="_clip2">
                <path d="M95.197,109.667l6.118,-0.408l29.774,0.816l0,3.263l-31.405,1.224l-4.486,1.224l0,-6.118Z"/>
            </clipPath>
            <g clip-path="url(#_clip2)">
                <path d="M107.025,174.925l0,4.894l25.695,-4.486l-0.816,-4.894l-24.88,4.486Z" style="fill:#bd8e3c;stroke:#a57826;stroke-width:2.08px;"/>
            </g>
            <path d="M95.197,109.667l6.118,-0.408l29.774,0.816l0,3.263l-31.405,1.224l-4.486,1.224l0,-6.118Z" style="fill:none;stroke:#a57826;stroke-width:2.08px;"/>
            <path d="M81.33,98.655l16.315,0.816l-11.012,2.039l-2.855,2.855l-2.447,1.224l0,-6.934Z" style="fill:#bd8e3c;stroke:#a57826;stroke-width:2.08px;"/>
            <path d="M96.421,116.193l5.71,-0.408l2.447,12.644l17.724,5.714l-16.649,3.66l-0.197,12.579l7.28,5.42l1.284,2.992c0,0 -25.6,1.909 -25.756,2.264c-0.156,0.355 -2.786,0 -2.786,0l10.943,-44.865Z" style="fill:#bd8e3c;stroke:#a57826;stroke-width:2.08px;"/>
            <path d="M106.617,175.129l22.432,-3.467l2.039,3.671l-24.064,4.486l-0.408,-4.69Z" style="fill:#7d5602;stroke:#a57826;stroke-width:2.08px;"/>
            <path d="M166.573,163.913c0,0 6.823,0.42 6.118,-2.756l12.2,-1.73l7.276,3.671l0.918,0.834l-26.511,3.652l0,-3.671Z" style="fill:#808080;stroke:#a57826;stroke-width:2.08px;"/>
            <path d="M119.261,141.48l14.275,-1.224l10.197,3.671l-15.091,2.039l-9.381,-4.486Z" style="fill:#808080;stroke:#a57826;stroke-width:2.08px;"/>
            <path d="M149.443,145.967l-17.13,2.039l-3.263,-2.039l14.275,-2.039l6.118,2.039Z" style="fill:#7d5602;stroke:#a57826;stroke-width:2.08px;"/>
            <path d="M141.693,152.493l0.408,1.224l17.946,-1.631l0,-2.039l-18.354,2.447Z" style="fill:#7d5602;stroke:#a57826;stroke-width:2.08px;"/>
            <path d="M151.482,173.294l-18.354,4.079l-14.275,-22.432l0.408,12.236l-4.079,8.973l-6.526,-1.928l4.079,-9.084l-4.079,-12.236l-2.039,0l0,-16.315l22.432,10.197l12.236,5.302l0.408,4.894l-6.526,-0l0,8.157l2.447,0l13.867,8.157Z" style="fill:#808080;stroke:#a57826;stroke-width:2.08px;"/>
            <path d="M118.853,176.149l8.157,-7.342l-7.749,-13.867l0,12.236l-4.079,8.973l3.671,0Z" style="fill:#808080;stroke:#a57826;stroke-width:2.08px;"/>
            <path d="M144.14,134.955l24.064,-1.224l18.762,6.934l-18.354,2.855l-24.472,-8.565Z" style="fill:#808080;stroke:#a57826;stroke-width:2.08px;"/>
            <path d="M85,103.141l1.631,-1.631l9.789,7.749l-1.631,1.631c0,0 -7.393,-6.472 -9.789,-7.749Z" style="fill:#7d5602;stroke:#a57826;stroke-width:2.08px;"/>
            <path d="M78.067,180.227l4.079,1.631c0,0 0.3,-0.867 1.224,-0.408l73.415,28.143c0,0 0.881,0.348 0.816,1.224l9.381,3.671l0,-3.263l-2.039,-3.671l-84.835,-30.59c0,0 -0.651,-0.261 -0.408,-0.816l-2.039,2.039l0.408,2.039Z" style="fill:#bd8e3c;stroke:#a57826;stroke-width:2.08px;"/>
            <path d="M98.052,126.39c0,0 -0.104,29.317 -9.789,34.668l-3.671,0.408l-0.408,-11.012c0,0 1.696,1.366 4.486,0c0,0 6.306,0.99 9.381,-24.064Z" style="fill:#bd8e3c;stroke:#a57826;stroke-width:2.08px;"/>
            <ellipse cx="86.326" cy="127.205" rx="11.726" ry="23.656" style="fill:#bd8e3c;stroke:#a57826;stroke-width:2.08px;"/>
            <path d="M134.813,156.979l2.801,1.569l-0.408,36.434l-2.401,0.963l0.008,-38.966Z" style="fill:#bd8e3c;stroke:#a57826;stroke-width:2.08px;"/>
            <path d="M79.698,130.06l2.039,0l0,14.887l19.985,3.059l0,-30.998l-20.393,0.204l0,8.769l-1.631,0l-0.408,-26.511l1.835,-0.816l0.204,15.499l22.84,-0.816l0,35.28l27.783,4.283l-0.055,-24.472l2.577,0l-0.124,25.084l25.491,4.079l0.204,-16.111l3.042,0.951l0.017,15.568c0,0 5.623,0.16 5.506,3.059c0,0 0.144,1.903 -1.631,2.447l-3.671,-0.612l-0.816,43.437l-3.263,-1.224l0.612,-42.826l-25.084,-4.486l-0.408,37.931l-2.855,-0.816l0.612,-37.931l-28.143,-5.098l0.612,33.241l-2.447,-0.816l-0.204,-32.833l-20.189,-3.059l0.408,29.163l-2.039,-1.021l-0.408,-46.496Z" style="fill:#bd8e3c;stroke:#a57826;stroke-width:2.08px;"/>
            <path d="M159.639,168.807l-2.039,-4.486l-2.447,-2.447l4.486,0.408l-0,6.526Z" style="fill:#808080;stroke:#a57826;stroke-width:2.08px;"/>
            <path d="M142.101,153.716l0,0.816l17.538,2.855l0.408,-5.302l-17.946,1.631Z" style="fill:#808080;stroke:#a57826;stroke-width:2.08px;"/>
            <path d="M137.615,147.191l0,2.855l4.079,2.039l17.538,-2.039l-9.789,-4.079l-11.828,1.224Z" style="fill:#808080;stroke:#a57826;stroke-width:2.08px;"/>
            <path d="M166.981,214.488l4.079,-1.224l-0.204,-3.263l-2.24,-3.671l-2.042,-1.02l-3.875,1.02l2.243,1.428l2.243,3.467l-0.204,3.263Z" style="fill:#bd8e3c;stroke:#a57826;stroke-width:2.08px;"/>
            <path d="M162.902,206.535l3.671,-1.224l0,-41.398l-3.263,-0.816l-0.408,43.437Z" style="fill:#bd8e3c;stroke:#a57826;stroke-width:2.08px;"/>
            <path d="M163.718,157.795l2.855,-0.408c0,0 5.763,0.285 6.118,2.855c0,0 0.047,2.371 -0.816,2.855c-0.969,0.544 -4.591,0.567 -4.996,0.408c-0.405,-0.159 1.515,-0.952 1.736,-1.631c0.221,-0.68 0.225,-1.918 -0.411,-2.447c-0.816,-0.68 -4.486,-1.631 -4.486,-1.631Z" style="fill:#bd8e3c;stroke:#a57826;stroke-width:2.08px;"/>
            <path d="M163.31,157.795l3.263,-0.408l0.408,-15.499l-3.671,0.408l0,15.499Z" style="fill:#bd8e3c;stroke:#a57826;stroke-width:2.08px;"/>
            <path d="M160.047,141.48l3.263,1.224l3.569,-0.816l-3.977,-1.224l-2.855,0.816Z" style="fill:#bd8e3c;stroke:#a57826;stroke-width:2.08px;"/>
            <path d="M81.689,117.417l2.496,0l0,27.327l-2.447,0l-0.048,-27.327Z" style="fill:#bd8e3c;stroke:#a57826;stroke-width:2.08px;"/>
            <path d="M134.352,153.308l3.263,0.816l0,-26.103l40.786,-1.224l0,4.894l2.447,0.816l0,-5.91l1.224,0.038l0,-3.102l-48.536,0.612l0,3.671l1.02,0l-0.204,25.491Z" style="fill:#bd8e3c;stroke:#a57826;stroke-width:2.08px;"/>
            <path d="M175.954,131.284l0,-4.413l2.24,-0.073l0.208,4.894l-2.447,-0.408Z" style="fill:#bd8e3c;stroke:#a57826;stroke-width:2.08px;"/>
            <path d="M78.271,125.982l9.585,0c0,0 1.902,1.734 0.204,4.283l-9.993,-0.204c0,0 1.794,-1.036 0.204,-4.079Z" style="fill:#bd8e3c;stroke:#a57826;stroke-width:2.08px;"/>
            <ellipse cx="78.067" cy="128.021" rx="1.428" ry="2.039" style="fill:#bd8e3c;stroke:#a57826;stroke-width:2.08px;"/>
            <path d="M82.145,177.372l2.447,-0.408l17.538,5.71l0,2.039l-19.985,-7.342Z" style="fill:#bd8e3c;stroke:#a57826;stroke-width:2.08px;"/>
            <path d="M81.737,148.414l2.447,0.408l0.408,27.735l-2.447,0.816c0,0 -0.633,-28.783 -0.408,-28.958Z" style="fill:#bd8e3c;stroke:#a57826;stroke-width:2.08px;"/>
            <path d="M119.836,123.025l19.41,-0.487l22.432,6.992l-22.432,0.203l-19.41,-6.708Z" style="fill:#808080;stroke:#a57826;stroke-width:2.08px;"/>
            <path d="M84.593,161.466l4.079,0l21.617,-2.447l2.039,5.302l-25.287,3.263l-2.447,-0.816l0,-5.302Z" style="fill:#bd8e3c;stroke:#a57826;stroke-width:2.08px;"/>
            <path d="M87.04,101.51l15.499,-2.855c0,0 -1.114,10.066 -1.224,10.197c-0.11,0.13 -4.894,0.408 -4.894,0.408l-9.381,-7.749Z" style="fill:#bd8e3c;stroke:#a57826;stroke-width:2.08px;"/>
            <path d="M138.023,101.102l-8.565,8.565l-28.143,-0.408l1.224,-10.604l35.484,2.447Z" style="fill:#bd8e3c;stroke:#a57826;stroke-width:2.08px;"/>
            <path d="M140.47,119.048l-0.408,3.671l4.486,1.224l12.644,0l-16.722,-4.894Z" style="fill:#bd8e3c;stroke:#a57826;stroke-width:2.08px;"/>
            <path d="M155.561,127.613l15.091,-0.408l4.079,1.224l-15.091,0.816l-4.079,-1.631Z" style="fill:#bd8e3c;stroke:#a57826;stroke-width:2.08px;"/>
            <path d="M175.954,150.046c-0.253,-0.301 28.143,-2.855 28.143,-2.855l7.342,3.263l-33.445,3.263c0,0 -1.786,-3.369 -2.039,-3.671Z" style="fill:#bd8e3c;stroke:#a57826;stroke-width:2.08px;"/>
            <path d="M174.322,130.876l-1.224,2.855c0,0 -4.106,0.238 -4.486,0c-0.38,-0.238 19.577,6.934 19.577,6.934l15.907,-1.224l-29.774,-8.565Z" style="fill:#bd8e3c;stroke:#a57826;stroke-width:2.08px;"/>
            <path d="M167.389,141.48l38.339,-2.039l-1.224,7.749l-28.55,2.855c0,0 -1.452,-1.46 -3.467,-2.039c0,0 -0.993,-2.593 -1.835,-3.671c-0.85,-1.088 -1.72,-2.194 -3.263,-2.855Z" style="fill:#bd8e3c;stroke:#a57826;stroke-width:2.08px;"/>
            <path d="M202.465,156.979l2.855,0l0,12.236l-3.263,-2.855l0,-3.671l0.408,-5.71Z" style="fill:#bd8e3c;stroke:#a57826;stroke-width:2.08px;"/>
            <path d="M172.691,156.163l-6.118,0.408l0,0.816c0,0 5.01,0.043 6.118,2.447l0,1.02l33.649,-3.875l3.875,0.816c0,0 2.834,-2.273 0.204,-3.875l-3.875,0l-33.853,2.243Z" style="fill:#bd8e3c;stroke:#a57826;stroke-width:2.08px;"/>
            <path d="M166.573,155.348l4.079,-0.816l2.855,1.631l-6.934,0.816l0,-1.631Z" style="fill:#bd8e3c;stroke:#a57826;stroke-width:2.08px;"/>
            <path d="M205.728,139.441l-1.631,7.749l5.302,2.447l6.934,-0.816c0,0 -2.175,-1.699 -3.263,-2.447c-1.057,-0.727 -2.33,-1.159 -3.263,-2.039c-1.224,-1.156 -0.741,-4.896 -4.079,-4.894Z" style="fill:#bd8e3c;stroke:#a57826;stroke-width:2.08px;"/>
            <path d="M216.332,148.822l-0.816,4.079l-38.747,4.486l1.224,-5.302l38.339,-3.263Z" style="fill:#bd8e3c;stroke:#a57826;stroke-width:2.08px;"/>
            <path d="M167.389,141.888c0,0 -0.378,11.67 -0.408,11.216c-0.03,-0.454 9.789,4.283 9.789,4.283c0,0 3.135,-5.853 -0.816,-7.342c0,0 -0.819,-2.313 -4.079,-2.447c0,0 -0.787,-5.557 -4.486,-5.71Z" style="fill:#bd8e3c;stroke:#a57826;stroke-width:2.08px;"/>
            <path d="M121.708,177.372l8.973,-1.631l1.224,0.816l-0.408,4.079l-9.789,-3.263Z" style="fill:#bd8e3c;stroke:#a57826;stroke-width:2.08px;"/>
            <path d="M139.654,175.333l3.263,-0.408l-0.408,1.631l-3.263,0.816l0.408,-2.039Z" style="fill:#bd8e3c;stroke:#a57826;stroke-width:2.08px;"/>
            <path d="M137.615,177.78l15.907,-2.855l5.302,2.855l-20.801,4.079l-0.408,-4.079Z" style="fill:#7d5602;stroke:#a57826;stroke-width:2.08px;"/>
            <path d="M147.403,180.227l4.079,-0.816l8.157,2.447l0,2.039l-12.236,-3.671Z" style="fill:#bd8e3c;stroke:#a57826;stroke-width:2.08px;"/>
            <path d="M138.023,182.267l9.381,-2.039l11.828,3.671l0,4.079l-21.209,-5.71Z" style="fill:#bd8e3c;stroke:#a57826;stroke-width:2.08px;"/>
            <path d="M175.954,187.977l3.671,-0.816l11.012,3.263l-3.671,0.816l-11.012,-3.263Z" style="fill:#bd8e3c;stroke:#a57826;stroke-width:2.08px;"/>
            <path d="M166.573,185.122l4.079,3.671l5.302,-1.224l11.012,4.079l-9.381,1.631l-11.012,-2.855l0,-5.302Z" style="fill:#bd8e3c;stroke:#a57826;stroke-width:2.08px;"/>
            <path d="M166.573,195.726l35.484,-8.157l1.631,1.224l-37.116,8.973l0,-2.039Z" style="fill:#bd8e3c;stroke:#a57826;stroke-width:2.08px;"/>
            <path d="M204.096,189.2l-0.408,4.486l-36.708,8.565l0,-4.486l37.116,-8.565Z" style="fill:#bd8e3c;stroke:#a57826;stroke-width:2.08px;"/>
            <path d="M189.821,196.95l9.789,-2.039l7.342,2.039l2.447,2.855l0,3.263l-19.577,-6.118Z" style="fill:#bd8e3c;stroke:#a57826;stroke-width:2.08px;"/>
            <path d="M205.32,196.134l2.855,-0.816l2.039,0.816l2.447,2.855l0,3.263l-3.263,0.816l0,-3.263l-2.039,-2.855l-2.039,-0.816Z" style="fill:#bd8e3c;stroke:#a57826;stroke-width:2.08px;"/>
            <path d="M202.057,182.267l3.263,-0.408l-0.408,14.275l-3.263,-0.816l0,-1.224l2.039,-0.816l0.408,-4.486l-2.039,-1.631l0,-4.894Z" style="fill:#bd8e3c;stroke:#a57826;stroke-width:2.08px;"/>
            <path d="M205.32,181.859l2.855,-0.816l-0.408,14.275l-2.855,0.816l0.408,-14.275Z" style="fill:#bd8e3c;stroke:#a57826;stroke-width:2.08px;"/>
            <path d="M205.728,156.979l2.447,0.816l-0,15.499l-2.855,-4.079l0.408,-12.236Z" style="fill:#bd8e3c;stroke:#a57826;stroke-width:2.08px;"/>
            <path d="M210.622,153.512l2.855,-0.204c0,0 1.317,1.274 1.02,2.243c0,0 -0.236,1.397 -1.631,1.835c0,0 -2.077,0.501 -2.651,0.408c0,0 3.473,-2.125 0.408,-4.283Z" style="fill:#bd8e3c;stroke:#a57826;stroke-width:2.08px;"/>
            <path d="M166.573,174.145l1.853,1.719l3.675,7.399l-1.261,5.326l-4.266,-3.059l0,-11.385Z" style="fill:#bd8e3c;stroke:#a57826;stroke-width:2.08px;"/>
            <path d="M194.308,166.768l7.342,-0.816l3.671,3.263l4.894,7.092l-2.039,5.06l-13.867,-14.599Z" style="fill:#bd8e3c;stroke:#a57826;stroke-width:2.08px;"/>
            <path d="M166.165,171.227l27.735,-4.283l13.867,14.451l-37.274,7.222l1.382,-5.506l-3.671,-7.342l-2.039,-1.596l0,-2.946Z" style="fill:#808080;stroke:#a57826;stroke-width:2.08px;"/>
            <path d="M166.573,167.584l35.484,-4.486c0,0 2.72,1.379 -0.2,2.855l-35.285,5.302l0,-3.671Z" style="fill:#bd8e3c;stroke:#a57826;stroke-width:2.08px;"/>
            <path d="M184.927,159.834l7.138,3.263l0.816,0.816l6.526,-0.816c0,0 -0.777,-1.145 -0.612,-1.835c0,0 -0.512,-3.013 -2.651,-2.855c0,0 -11.099,1.422 -11.216,1.428Z" style="fill:#bd8e3c;stroke:#a57826;stroke-width:2.08px;"/>
            <path d="M166.981,152.901l-0.408,2.447l3.467,-0.816l-3.059,-1.631Z" style="fill:#808080;stroke:#a57826;stroke-width:2.08px;"/>
            <path d="M137.615,194.716l-2.809,1.23l24.426,9.977l0,-2.887l-21.617,-8.32Z" style="fill:#bd8e3c;stroke:#a57826;stroke-width:2.08px;"/>
            <path d="M175.138,128.837l-2.039,4.894c0,0 -35.325,1.709 -35.076,1.631c0.249,-0.077 1.631,-5.302 1.631,-5.302l35.484,-1.224Z" style="fill:#bd8e3c;stroke:#a57826;stroke-width:2.08px;"/>
            <path d="M137.615,132.915l23.656,8.565l-1.224,0l0,8.973l-22.432,-8.973l0,-8.565Z" style="fill:#bd8e3c;stroke:#a57826;stroke-width:2.08px;"/>
            <path d="M107.025,119.456l0,3.671l31.813,10.197l0.816,-3.263l-32.629,-10.604Z" style="fill:#bd8e3c;stroke:#a57826;stroke-width:2.08px;"/>
            <path d="M107.025,123.127c0,0 -0.039,8.034 -0,7.749c0.039,-0.285 24.88,8.973 24.88,8.973l-0,-8.565l-24.88,-8.157Z" style="fill:#bd8e3c;stroke:#a57826;stroke-width:2.08px;"/>
            <path d="M107.025,136.178l11.828,-0.813l13.052,4.892l-13.459,1.428l-11.42,-5.506Z" style="fill:#7d5602;stroke:#a57826;stroke-width:2.08px;"/>
            <path d="M137.615,158.611l17.538,3.263l2.447,2.447l2.039,4.486l0,9.381l-22.025,-13.052l-0,-6.526Z" style="fill:#bd8e3c;stroke:#a57826;stroke-width:2.08px;"/>
            <path d="M104.986,185.122l2.039,-0.816l24.472,8.565l-0.408,2.447l-26.103,-10.197Z" style="fill:#bd8e3c;stroke:#a57826;stroke-width:2.08px;"/>
            <path d="M104.17,152.493l2.855,0.408l0,31.405l-2.447,0.816l-0.408,-32.629Z" style="fill:#bd8e3c;stroke:#a57826;stroke-width:2.08px;"/>
            <path d="M104.17,148.414l2.447,0.408l0,-31.405l39.971,0l0,3.263l2.447,0.408l0,-6.526l-44.457,-1.224l-0.408,35.076Z" style="fill:#bd8e3c;stroke:#a57826;stroke-width:2.08px;"/>
            <path d="M107.025,119.456l33.445,-0.408l-0.816,3.263l-19.985,0.816l-12.644,-3.671Z" style="fill:#bd8e3c;stroke:#a57826;stroke-width:2.08px;"/>
            <path d="M144.344,117.62l2.039,0l0.204,3.263l-2.447,-0.612l0.204,-2.651Z" style="fill:#7d5602;stroke:#a57826;stroke-width:2.08px;"/>
            <path d="M107.025,117.62l25.695,-0.204l0.408,1.631l-26.103,0.408l0,-1.835Z" style="fill:#7d5602;stroke:#a57826;stroke-width:2.08px;"/>
            <path d="M102.131,110.891l44.457,1.224l0.408,1.631l-42.418,-0.408l-2.447,0l0,-2.447Z" style="fill:#7d5602;stroke:#a57826;stroke-width:2.08px;"/>
            <path d="M100.499,111.706l1.631,-0.816l0,2.447l-1.631,0.408l0,-2.039Z" style="fill:#7d5602;stroke:#a57826;stroke-width:2.08px;"/>
        </g>
    </g>
    <g id="grain-for-cleaner">
        <path id="grain-for-cleaner5" d="M69.546,63.222l16.865,28.687" style="fill:none;stroke:#fff5a7;stroke-width:2.42px;stroke-dasharray:12.112,9.69,0,0,0,0;"/>
        <path id="grain-for-cleaner4" d="M103.889,43.143l0.238,51.969" style="fill:none;stroke:#fff5a7;stroke-width:2.42px;stroke-dasharray:12.112,9.69,0,0,0,0;"/>
        <path id="grain-for-cleaner3" d="M146.647,70.308c-0.064,-1.697 -20.079,23.622 -20.079,23.622" style="fill:none;stroke:#fff5a7;stroke-width:2.42px;stroke-dasharray:12.112,9.69,0,0,0,0;"/>
        <path id="grain-for-cleaner2" d="M130.112,50.82c0,0 -11.965,41.932 -12.992,41.929" style="fill:none;stroke:#fff5a7;stroke-width:2.42px;stroke-dasharray:12.112,9.69,0,0,0,0;"/>
        <path id="grain-for-cleaner1" d="M84.049,52.592l11.811,40.157" style="fill:none;stroke:#fff5a7;stroke-width:2.42px;stroke-dasharray:12.112,9.69,0,0,0,0;"/>
    </g>
</svg>
