<?xml version="1.0" encoding="UTF-8" standalone="no"?>
<!DOCTYPE svg PUBLIC "-//W3C//DTD SVG 1.1//EN" "http://www.w3.org/Graphics/SVG/1.1/DTD/svg11.dtd">
<svg width="100%" height="100%" viewBox="0 0 2481 3508" version="1.1" xmlns="http://www.w3.org/2000/svg" xmlns:xlink="http://www.w3.org/1999/xlink" xml:space="preserve" xmlns:serif="http://www.serif.com/" style="fill-rule:evenodd;clip-rule:evenodd;stroke-linecap:round;stroke-linejoin:round;stroke-miterlimit:1.5;">
    <g id="elevator-scene-wrapper">
        <g id="building-structure">
            <path id="building-base" d="M824.317,3016.53L1596.11,3014.8L1592.07,1470.3L1306.02,1314.37L1109.83,1321.6L821.426,1472.73L824.317,3016.53Z" style="fill:rgb(254,237,200);fill-opacity:0.99;stroke:black;stroke-opacity:0.99;stroke-width:4.17px;"/>
            <g id="windows">
                <rect id="window7" x="1500.72" y="1711.34" width="92.728" height="131.147" style="fill:rgb(222,124,0);stroke:black;stroke-width:4.17px;"/>
                <g id="window6" transform="matrix(0.254842,0,0,1,1187.37,0)">
                    <rect x="1500.72" y="1711.34" width="92.728" height="131.147" style="fill:rgb(222,124,0);stroke:black;stroke-width:5.71px;"/>
                </g>
                <g id="window5" transform="matrix(1,0,0,1,0.91185,284.534)">
                    <rect x="1500.72" y="1711.34" width="92.728" height="131.147" style="fill:rgb(222,124,0);stroke:black;stroke-width:4.17px;"/>
                </g>
                <g id="window4" transform="matrix(1,0,0,1,0.383163,1029.65)">
                    <rect x="1500.72" y="1711.34" width="92.728" height="131.147" style="fill:rgb(222,124,0);stroke:black;stroke-width:4.17px;"/>
                </g>
                <g id="window3" transform="matrix(0.254842,0,0,1,1187.34,283.565)">
                    <rect x="1500.72" y="1711.34" width="92.728" height="131.147" style="fill:rgb(222,124,0);stroke:black;stroke-width:5.71px;"/>
                </g>
                <g id="window2" transform="matrix(0.233226,0,0,2.07056,1221.73,-943.213)">
                    <rect x="1500.72" y="1711.34" width="92.728" height="131.147" style="fill:rgb(222,124,0);stroke:black;stroke-width:2.83px;"/>
                </g>
                <g id="window1" transform="matrix(0.254842,0,0,1,1187.95,594.974)">
                    <rect x="1500.72" y="1711.34" width="92.728" height="131.147" style="fill:rgb(222,124,0);stroke:black;stroke-width:5.71px;"/>
                </g>
            </g>
            <rect id="_6-floor" serif:id="6-floor" x="915.236" y="2476.11" width="581.852" height="177.732" style="fill:rgb(222,124,0);stroke:black;stroke-width:4.17px;"/>
            <g id="_5-floor" serif:id="5-floor" transform="matrix(1,0,0,0.144302,3.69933,1541.05)">
                <rect x="915.236" y="2476.11" width="581.852" height="177.732" style="fill:rgb(222,124,0);stroke:black;stroke-width:5.83px;"/>
            </g>
            <rect id="_4-floor" serif:id="4-floor" x="915.545" y="2205.36" width="580.4" height="20.412" style="fill:rgb(222,124,0);stroke:black;stroke-width:4.17px;"/>
            <path id="roof-outer-left" d="M771.298,1453.15L771.133,1471.65L812.891,1472.37L1109.71,1314.1L1109.71,1279.15L771.298,1453.15Z" style="fill:rgb(222,124,0);stroke:black;stroke-width:4.17px;"/>
            <g id="roof-outer-right" transform="matrix(-0.98903,0,0,1,2404.02,-0.788047)">
                <path d="M771.298,1453.15L771.133,1471.65L812.891,1472.37L1109.71,1314.1L1109.71,1279.15L771.298,1453.15Z" style="fill:rgb(222,124,0);stroke:black;stroke-width:4.19px;"/>
            </g>
            <rect id="inside-floor" x="1158.24" y="792.049" width="122.273" height="712.22" style="fill:rgb(105,186,201);stroke:black;stroke-width:0.83px;"/>
            <g id="shaft-wall" transform="matrix(1.01102,0,0,1,-10.0492,0)">
                <path d="M912.275,1533.55L912.275,1556.55L1493.84,1563.41L1494.38,1538.53C1494.38,1538.53 1223.29,1400.8 912.275,1533.55Z" style="fill:rgb(222,124,0);stroke:black;stroke-width:4.14px;"/>
            </g>
            <path id="roof-small-right" d="M1114.5,1320.01L1114.5,1437.88L888.213,1437.88L1114.5,1320.01Z" style="fill:rgb(255,182,0);stroke:black;stroke-width:4.17px;"/>
            <g id="roof-small-l" transform="matrix(-1,0,0,1,2423.21,0.075809)">
                <path d="M1114.5,1320.01L1114.5,1437.88L888.213,1437.88L1114.5,1320.01Z" style="fill:rgb(255,182,0);stroke:black;stroke-width:4.17px;"/>
            </g>
            <path id="roof-right" d="M1256.99,1479.36L1260.11,789.927L1323.44,791.013L1324.58,813.644C1324.58,813.644 1299.55,818.048 1300.42,836.362L1299.85,874.719C1299.85,874.719 1322.8,888.406 1299.7,901.147C1299.7,901.147 1300.81,1466.1 1301.49,1464.99C1302.16,1463.89 1549.31,1468.13 1549.6,1467.43C1549.88,1466.72 1548.44,1447.35 1548.44,1447.35L1589.75,1469.53L1591.5,1706.69C1591.5,1706.69 1499.44,1706.52 1499.75,1706.43C1500.07,1706.35 1499.99,1535.88 1499.99,1535.88C1499.99,1535.88 1378.92,1490.09 1256.99,1479.36Z" style="fill:rgb(248,224,142);stroke:black;stroke-width:4.17px;"/>
            <g id="roof-left" transform="matrix(-1,0,0,1,2414.88,-1.9138)">
                <path d="M1256.99,1479.36L1260.11,789.927L1323.44,791.013L1324.58,813.644C1324.58,813.644 1299.55,818.048 1300.42,836.362L1299.85,874.719C1299.85,874.719 1322.8,888.406 1299.7,901.147C1299.7,901.147 1300.81,1466.1 1301.49,1464.99C1302.16,1463.89 1549.31,1468.13 1549.6,1467.43C1549.88,1466.72 1548.44,1447.35 1548.44,1447.35L1589.75,1469.53L1591.5,1706.69C1591.5,1706.69 1499.44,1706.52 1499.75,1706.43C1500.07,1706.35 1499.99,1535.88 1499.99,1535.88C1499.99,1535.88 1378.92,1490.09 1256.99,1479.36Z" style="fill:rgb(248,224,142);stroke:black;stroke-width:4.17px;"/>
            </g>
            <g id="_4-floor1" serif:id="4-floor" transform="matrix(1.00239,0,0,1.02157,-3.58361,-41.0066)">
                <rect x="918.008" y="1566.95" width="581.325" height="334.224" style="fill:rgb(248,224,142);stroke:black;stroke-width:4.12px;"/>
            </g>
            <g id="_3-floor" serif:id="3-floor" transform="matrix(1,0,0,1.03601,0,-79.205)">
                <rect x="913.328" y="1935.01" width="585.949" height="264.531" style="fill:rgb(248,224,142);stroke:black;stroke-width:4.09px;"/>
            </g>
            <rect id="_2-floor" serif:id="2-floor" x="914.205" y="2233.35" width="588.759" height="228.682" style="fill:rgb(248,224,142);stroke:black;stroke-width:4.17px;"/>
            <rect id="_1st-floors" serif:id="1st-floors" x="915.05" y="2709.31" width="582.692" height="273.688" style="fill:rgb(248,224,142);stroke:black;stroke-width:4.17px;"/>
        </g>
        <g id="elevator">
            <g id="upper-cabin-left" transform="matrix(0.465809,0,0,1,595.856,3.45121)">
                <rect x="1114.85" y="1688.24" width="180.967" height="207.021" style="fill:rgb(222,124,0);stroke:black;stroke-width:5.34px;"/>
            </g>
            <g id="upper-cabin-right" transform="matrix(0.465809,0,0,1,682.659,3.52636)">
                <rect x="1114.85" y="1688.24" width="180.967" height="207.021" style="fill:rgb(222,124,0);stroke:black;stroke-width:5.34px;"/>
            </g>
            <g id="cabin-box-left" transform="matrix(0.894775,0,0,1,116.66,0)">
                <rect x="1108.67" y="2735.93" width="98.348" height="244.011" style="fill:rgb(222,124,0);stroke:black;stroke-width:4.39px;"/>
            </g>
            <g id="cabin-box-right" transform="matrix(0.939779,0,0,1.00522,62.0191,-15.5784)">
                <rect x="1208.56" y="2737.29" width="93.655" height="244.7" style="fill:rgb(222,124,0);stroke:black;stroke-width:4.28px;"/>
            </g>
            <g id="cable-right" transform="matrix(1,-3.73828e-06,-3.73828e-06,1.00078,-10.2886,-4.84879)">
                <path d="M1292.58,2731.92L1296.4,1935.35" style="fill:none;stroke:rgb(105,186,201);stroke-width:8.33px;"/>
            </g>
            <g id="cable-left" transform="matrix(1,-7.34481e-07,-7.34481e-07,1.00015,-178.785,-3.68591)">
                <path d="M1292.58,2731.92L1296.4,1935.35" style="fill:none;stroke:rgb(105,186,201);stroke-width:8.33px;"/>
            </g>
            <path id="cable-foundation" d="M1114.4,2730.6L1203.96,2671.72L1281.55,2732.1" style="fill:none;stroke:rgb(0,36,156);stroke-width:8.33px;"/>
            <g id="pulley-wheel" transform="matrix(1,0,0,1,21.6361,-1.79441)">
                <rect x="1133.28" y="1564.59" width="116.339" height="14.981" style="fill:rgb(0,36,156);stroke:black;stroke-width:8.33px;"/>
            </g>
            <g id="main-cable" transform="matrix(1,0,0,1,-13.7762,-1.54001)">
                <path d="M1218.94,2672.57L1230.44,1572.56" style="fill:none;stroke:rgb(0,36,156);stroke-width:8.33px;"/>
            </g>
        </g>
    </g>
</svg>
