<?xml version="1.0" encoding="UTF-8" standalone="no"?>
<!DOCTYPE svg PUBLIC "-//W3C//DTD SVG 1.1//EN" "http://www.w3.org/Graphics/SVG/1.1/DTD/svg11.dtd">
<svg viewBox="0 0 3644 9303" version="1.1" xmlns="http://www.w3.org/2000/svg" xmlns:xlink="http://www.w3.org/1999/xlink" xml:space="preserve" xmlns:serif="http://www.serif.com/" style="fill-rule:evenodd;clip-rule:evenodd;stroke-linecap:round;stroke-linejoin:round;stroke-miterlimit:1.5;">
    <g id="elevator-scene-wrapper">
        <g id="building-structure">
            <path id="building-base" d="M230.288,9294.174l3215.804,-7.208l-16.833,-6435.417l-1191.875,-649.708l-817.458,30.125l-1201.683,629.708l12.046,6432.5Z" style="fill:#feedc8;fill-opacity:0.99;stroke:#000;stroke-opacity:0.99;stroke-width:17.38px;"/>
            <g id="windows">
                <rect id="window7" x="3048.633" y="3855.883" width="386.367" height="546.446" style="fill:#de7c00;stroke:#000;stroke-width:17.38px;"/>
                <rect id="window6" x="3336.535" y="3855.883" width="98.462" height="546.446" style="fill:#de7c00;stroke:#000;stroke-width:17.36px;"/>
                <rect id="window5" x="3052.433" y="5041.441" width="386.367" height="546.446" style="fill:#de7c00;stroke:#000;stroke-width:17.38px;"/>
                <rect id="window4" x="3050.23" y="8146.091" width="386.367" height="546.446" style="fill:#de7c00;stroke:#000;stroke-width:17.38px;"/>
                <rect id="window3" x="3336.41" y="5037.403" width="98.462" height="546.446" style="fill:#de7c00;stroke:#000;stroke-width:17.36px;"/>
                <rect id="window2" x="3344.537" y="7559.546" width="90.111" height="1131.449" style="fill:#de7c00;stroke:#000;stroke-width:17.37px;"/>
                <rect id="window1" x="3338.952" y="6334.941" width="98.462" height="546.446" style="fill:#de7c00;stroke:#000;stroke-width:17.36px;"/>
            </g>
            <rect id="_6-floor" serif:id="6-floor" x="609.117" y="7042.424" width="2424.383" height="740.55" style="fill:#de7c00;stroke:#000;stroke-width:17.38px;"/>
            <rect id="_5-floor" serif:id="5-floor" x="624.531" y="4635.123" width="2424.383" height="106.863" style="fill:#de7c00;stroke:#000;stroke-width:17.35px;"/>
            <rect id="_4-floor" serif:id="4-floor" x="610.404" y="5914.299" width="2418.333" height="85.05" style="fill:#de7c00;stroke:#000;stroke-width:17.38px;"/>
            <path id="roof-outer-left" d="M9.375,2780.091l-0.687,77.083l173.992,3l1236.746,-659.458l0,-145.625l-1410.05,725Z" style="fill:#de7c00;stroke:#000;stroke-width:17.38px;"/>
            <path id="roof-outer-right" d="M3633.896,2776.807l0.68,77.083l-172.083,3l-1223.179,-659.458l0,-145.625l1394.582,725Z" style="fill:#de7c00;stroke:#000;stroke-width:17.36px;"/>
            <rect id="inside-floor" x="1621.633" y="25.503" width="509.471" height="2967.583" style="fill:#69bac9;stroke:#000;stroke-width:3.46px;"/>
            <path id="shaft-wall" d="M596.796,3115.091l0,95.833l2449.891,28.583l2.275,-103.667c0,0 -1141.989,-573.875 -2452.166,-20.75Z" style="fill:#de7c00;stroke:#000;stroke-width:17.35px;"/>
            <path id="roof-small-right" d="M1439.383,2225.341l0,491.125l-942.862,0l942.862,-491.125Z" style="fill:#ffb600;stroke:#000;stroke-width:17.38px;"/>
            <path id="roof-small-left" d="M2248.592,2225.657l0,491.125l942.862,0l-942.862,-491.125Z" style="fill:#ffb600;stroke:#000;stroke-width:17.38px;"/>
            <path id="roof-right" d="M2033.092,2889.299l13,-2872.637l263.875,4.525l4.75,94.296c0,0 -104.292,18.35 -100.667,94.658l-2.375,159.821c0,0 95.625,57.029 -0.625,110.117c0,0 4.625,2353.971 7.458,2349.346c2.792,-4.583 1032.583,13.083 1033.792,10.167c1.167,-2.958 -4.833,-83.667 -4.833,-83.667l172.125,92.417l7.292,988.167c0,0 -383.583,-0.708 -382.292,-1.083c1.333,-0.333 1,-710.625 1,-710.625c0,0 -504.458,-190.792 -1012.5,-235.5Z" style="fill:#f8e08e;stroke:#000;stroke-width:17.38px;"/>
            <path id="roof-left" d="M1620.175,2881.325l-13,-2872.637l-263.875,4.525l-4.75,94.296c0,0 104.292,18.35 100.667,94.658l2.375,159.821c0,0 -95.625,57.029 0.625,110.117c0,0 -4.625,2353.971 -7.458,2349.346c-2.792,-4.583 -1032.583,13.083 -1033.792,10.167c-1.167,-2.958 4.833,-83.667 4.833,-83.667l-172.125,92.417l-7.292,988.167c0,0 383.583,-0.708 382.292,-1.083c-1.333,-0.333 -1,-710.625 -1,-710.625c0,0 504.458,-190.792 1012.5,-235.5Z" style="fill:#f8e08e;stroke:#000;stroke-width:17.38px;"/>
            <rect id="_4-floor1" serif:id="4-floor" x="614.877" y="3224.226" width="2427.977" height="1422.638" style="fill:#f8e08e;stroke:#000;stroke-width:17.37px;"/>
            <rect id="_3-floor" serif:id="3-floor" x="601.167" y="4748.152" width="2441.454" height="1141.903" style="fill:#f8e08e;stroke:#000;stroke-width:17.35px;"/>
            <rect id="_2-floor" serif:id="2-floor" x="604.821" y="6030.924" width="2453.162" height="952.842" style="fill:#f8e08e;stroke:#000;stroke-width:17.38px;"/>
            <rect id="_1st-floors" serif:id="1st-floors" x="608.342" y="8014.091" width="2427.883" height="1140.367" style="fill:#f8e08e;stroke:#000;stroke-width:17.38px;"/>
        </g>
        <g id="elevator">
            <rect id="cabin-box-left" x="1415.092" y="8125.008" width="366.664" height="1024.906" style="fill:#de7c00;stroke:#000;stroke-width:17.43px;"/>
            <rect id="cabin-box-right" x="1786.46" y="8125.3" width="366.729" height="1024.906" style="fill:#de7c00;stroke:#000;stroke-width:17.35px;"/>
            <path id="cable-right" d="M2138.472,8096.954l15.929,-3321.631" style="fill:none;stroke:#69bac9;stroke-width:34.72px;"/>
            <path id="cable-left" d="M1436.437,8094.645l15.919,-3319.54" style="fill:none;stroke:#69bac9;stroke-width:34.71px;"/>
            <path id="cable-foundation" d="M1438.967,8102.799l373.167,-245.333l323.292,251.583" style="fill:none;stroke:#00249c;stroke-width:34.71px;"/>
            <rect id="pulley-wheel" x="1574.776" y="3236.947" width="484.746" height="62.421" style="fill:#00249c;stroke:#000;stroke-width:34.71px;"/>
            <path id="main-cable" d="M1817.149,7854.591l11.716,-4586.433" style="fill:none;stroke:#00249c;stroke-width:34.71px;"/>
        </g>
    </g>
</svg>
