<?xml version="1.0" encoding="UTF-8" standalone="no"?>
<!DOCTYPE svg PUBLIC "-//W3C//DTD SVG 1.1//EN" "http://www.w3.org/Graphics/SVG/1.1/DTD/svg11.dtd">
<svg width="100%" height="100%" viewBox="0 0 3644 9303" version="1.1" xmlns="http://www.w3.org/2000/svg" xmlns:xlink="http://www.w3.org/1999/xlink" xml:space="preserve" xmlns:serif="http://www.serif.com/" style="fill-rule:evenodd;clip-rule:evenodd;stroke-linecap:round;stroke-linejoin:round;stroke-miterlimit:1.5;">
    <g id="elevator-scene-wrapper">
        <g id="building-structure">
            <path id="building-base" d="M230.2875,9294.174167l3215.804167,-7.208333l-16.833333,-6435.416667l-1191.875,-649.708333l-817.458333,30.125l-1201.683333,629.708333l12.045833,6432.5Z" style="fill:#feedc8;fill-opacity:0.99;stroke:#000;stroke-opacity:0.99;stroke-width:17.38px;"/>
            <g id="windows">
                <rect id="window7" x="3048.633333" y="3855.8825" width="386.366667" height="546.445833" style="fill:#de7c00;stroke:#000;stroke-width:17.38px;"/>
                <rect id="window6" x="3336.535359" y="3855.8825" width="98.462454" height="546.445833" style="fill:#de7c00;stroke:#000;stroke-width:17.36px;"/>
                <rect id="window5" x="3052.432708" y="5041.440833" width="386.366667" height="546.445833" style="fill:#de7c00;stroke:#000;stroke-width:17.38px;"/>
                <rect id="window4" x="3050.229846" y="8146.090833" width="386.366667" height="546.445833" style="fill:#de7c00;stroke:#000;stroke-width:17.38px;"/>
                <rect id="window3" x="3336.410359" y="5037.403333" width="98.462454" height="546.445833" style="fill:#de7c00;stroke:#000;stroke-width:17.36px;"/>
                <rect id="window2" x="3344.537178" y="7559.545627" width="90.110752" height="1131.448885" style="fill:#de7c00;stroke:#000;stroke-width:17.37px;"/>
                <rect id="window1" x="3338.952026" y="6334.940833" width="98.462454" height="546.445833" style="fill:#de7c00;stroke:#000;stroke-width:17.36px;"/>
            </g>
            <rect id="_6-floor" serif:id="6-floor" x="609.116667" y="7042.424167" width="2424.383333" height="740.55" style="fill:#de7c00;stroke:#000;stroke-width:17.38px;"/>
            <rect id="_5-floor" serif:id="5-floor" x="624.530542" y="4635.122605" width="2424.383333" height="106.862846" style="fill:#de7c00;stroke:#000;stroke-width:17.35px;"/>
            <rect id="_4-floor" serif:id="4-floor" x="610.404167" y="5914.299167" width="2418.333333" height="85.05" style="fill:#de7c00;stroke:#000;stroke-width:17.38px;"/>
            <path id="roof-outer-left" d="M9.375,2780.090833l-0.6875,77.083333l173.991667,3l1236.745833,-659.458333l0,-145.625l-1410.05,725Z" style="fill:#de7c00;stroke:#000;stroke-width:17.38px;"/>
            <path id="roof-outer-right" d="M3633.896413,2776.807304l0.679958,77.083333l-172.082978,3l-1223.178732,-659.458333l0,-145.625l1394.581752,725Z" style="fill:#de7c00;stroke:#000;stroke-width:17.36px;"/>
            <rect id="inside-floor" x="1621.633333" y="25.503333" width="509.470833" height="2967.583333" style="fill:#69bac9;stroke:#000;stroke-width:3.46px;"/>
            <path id="shaft-wall" d="M596.796127,3115.090833l0,95.833333l2449.891026,28.583333l2.274795,-103.666667c0,0 -1141.989216,-573.875 -2452.165821,-20.75Z" style="fill:#de7c00;stroke:#000;stroke-width:17.35px;"/>
            <path id="roof-small-right" d="M1439.383333,2225.340833l0,491.125l-942.8625,0l942.8625,-491.125Z" style="fill:#ffb600;stroke:#000;stroke-width:17.38px;"/>
            <path id="roof-small-left" d="M2248.591667,2225.656704l0,491.125l942.8625,0l-942.8625,-491.125Z" style="fill:#ffb600;stroke:#000;stroke-width:17.38px;"/>
            <path id="roof-right" d="M2033.091667,2889.299167l13,-2872.6375l263.875,4.525l4.75,94.295833c0,0 -104.291667,18.35 -100.666667,94.658333l-2.375,159.820833c0,0 95.625,57.029167 -0.625,110.116667c0,0 4.625,2353.970833 7.458333,2349.345833c2.791667,-4.583333 1032.583333,13.083333 1033.791667,10.166667c1.166667,-2.958333 -4.833333,-83.666667 -4.833333,-83.666667l172.125,92.416667l7.291667,988.166667c0,0 -383.583333,-0.708333 -382.291667,-1.083333c1.333333,-0.333333 1,-710.625 1,-710.625c0,0 -504.458333,-190.791667 -1012.5,-235.5Z" style="fill:#f8e08e;stroke:#000;stroke-width:17.38px;"/>
            <path id="roof-left" d="M1620.175,2881.325l-13,-2872.6375l-263.875,4.525l-4.75,94.295833c0,0 104.291667,18.35 100.666667,94.658333l2.375,159.820833c0,0 -95.625,57.029167 0.625,110.116667c0,0 -4.625,2353.970833 -7.458333,2349.345833c-2.791667,-4.583333 -1032.583333,13.083333 -1033.791667,10.166667c-1.166667,-2.958333 4.833333,-83.666667 4.833333,-83.666667l-172.125,92.416667l-7.291667,988.166667c0,0 383.583333,-0.708333 382.291667,-1.083333c-1.333333,-0.333333 -1,-710.625 -1,-710.625c0,0 504.458333,-190.791667 1012.5,-235.5Z" style="fill:#f8e08e;stroke:#000;stroke-width:17.38px;"/>
            <rect id="_4-floor1" serif:id="4-floor" x="614.876788" y="3224.226298" width="2427.976528" height="1422.638382" style="fill:#f8e08e;stroke:#000;stroke-width:17.37px;"/>
            <rect id="_3-floor" serif:id="3-floor" x="601.166667" y="4748.152125" width="2441.454167" height="1141.903172" style="fill:#f8e08e;stroke:#000;stroke-width:17.35px;"/>
            <rect id="_2-floor" serif:id="2-floor" x="604.820833" y="6030.924167" width="2453.1625" height="952.841667" style="fill:#f8e08e;stroke:#000;stroke-width:17.38px;"/>
            <rect id="_1st-floors" serif:id="1st-floors" x="608.341667" y="8014.090833" width="2427.883333" height="1140.366667" style="fill:#f8e08e;stroke:#000;stroke-width:17.38px;"/>
        </g>
        <g id="elevator">
            <rect id="upper-cabin-left" x="1442.146515" y="3774.012542" width="351.233572" height="862.5875" style="fill:#de7c00;stroke:#000;stroke-width:17.36px;"/>
            <rect id="upper-cabin-right" x="1803.825682" y="3774.325667" width="351.233572" height="862.5875" style="fill:#de7c00;stroke:#000;stroke-width:17.36px;"/>
            <rect id="cabin-box-left" x="1415.092497" y="8125.0075" width="366.663882" height="1016.7125" style="fill:#de7c00;stroke:#000;stroke-width:17.36px;"/>
            <rect id="cabin-box-right" x="1786.460034" y="8125.300224" width="366.729176" height="1024.905558" style="fill:#de7c00;stroke:#000;stroke-width:17.35px;"/>
            <path id="cable-right" d="M2138.471614,8096.954482l15.929074,-3321.630579" style="fill:none;stroke:#69bac9;stroke-width:34.72px;"/>
            <path id="cable-left" d="M1436.437473,8094.644703l15.919104,-3319.539535" style="fill:none;stroke:#69bac9;stroke-width:34.71px;"/>
            <path id="cable-foundation" d="M1438.966667,8102.799167l373.166667,-245.333333l323.291667,251.583333" style="fill:none;stroke:#00249c;stroke-width:34.71px;"/>
            <rect id="pulley-wheel" x="1607.78375" y="3236.947458" width="484.745833" height="62.420833" style="fill:#00249c;stroke:#000;stroke-width:34.71px;"/>
            <path id="main-cable" d="M1817.149167,7854.590792l47.916667,-4583.375" style="fill:none;stroke:#00249c;stroke-width:34.71px;"/>
        </g>
    </g>
</svg>
