<?xml version="1.0" encoding="UTF-8" standalone="no"?>
<!DOCTYPE svg PUBLIC "-//W3C//DTD SVG 1.1//EN" "http://www.w3.org/Graphics/SVG/1.1/DTD/svg11.dtd">
<svg width="100%" height="100%" viewBox="0 0 548 165" version="1.1" xmlns="http://www.w3.org/2000/svg" xmlns:xlink="http://www.w3.org/1999/xlink" xml:space="preserve" xmlns:serif="http://www.serif.com/" style="fill-rule:evenodd;clip-rule:evenodd;stroke-linejoin:round;stroke-miterlimit:2;">
    <g id="building-wrapper">
        <g id="kiln-tower-scene">
            <rect id="walls" x="6.008" y="65.596" width="538.202" height="98.931" style="fill:#f9ebc7;"/>
            <path id="roof" d="M547.042,13.773l0,53.861l-547.042,-0.008l7.649,-52.729l539.393,-1.124Z" style="fill:#dd7c02;"/>
            <rect id="_2nd-floor" serif:id="2nd-floor" x="4.862" y="116.561" width="540.85" height="4.004" style="fill:#dd7c02;"/>
            <rect id="chimney-stack" x="14.987" y="10.438" width="31.549" height="14.381" style="fill:#efdaa5;"/>
            <path id="chimney-stack-roof" d="M14.128,0.035l33.819,-0.035l1.629,5.675l-0.158,5.838l-38.144,-0.109l0.044,-5.665l2.81,-5.705Z" style="fill:#dd7c02;"/>
            <g id="upper-door">
                <path id="door-frame" d="M243.913,31.11l0,27.749c0,0.15 -0.121,0.271 -0.271,0.271l-23.655,0c-0.15,-0 -0.271,-0.121 -0.271,-0.271l0,-27.749c-0,-0.15 0.121,-0.271 0.271,-0.271l23.655,0c0.15,0 0.271,0.121 0.271,0.271Z" style="fill:#808080;"/>
                <path id="black-door-hole" d="M241.766,33.093l0,23.597c-0,0.435 -0.353,0.788 -0.788,0.788l-18.685,0c-0.435,-0 -0.788,-0.353 -0.788,-0.788l0,-23.597c-0,-0.435 0.353,-0.788 0.788,-0.788l18.685,0c0.435,-0 0.788,0.353 0.788,0.788Z"/>
                <path d="M243.671,33.181l14.026,-2.676c0.271,-0.052 0.55,0.02 0.763,0.195c0.213,0.175 0.336,0.436 0.337,0.711l0.107,28.153c0.001,0.276 -0.121,0.538 -0.333,0.715c-0.212,0.177 -0.491,0.25 -0.762,0.2l-14.102,-2.611c-0.439,-0.081 -0.757,-0.464 -0.758,-0.91l-0.03,-22.865c-0.001,-0.445 0.316,-0.828 0.753,-0.911Z" style="fill:#808080;"/>
            </g>
            <g id="window7">
                <path d="M38.904,102.464l-0.042,-13.854c10.432,-6.366 18.572,0.207 18.572,0.207l0.195,13.75l-18.725,-0.104Z" style="fill:#67492d;"/>
                <path d="M40.175,100.832l-0.037,-11.22c9.145,-5.155 16.281,0.168 16.281,0.168l0.171,11.136l-16.415,-0.084Z" style="fill:#6d6d6d;"/>
            </g>
            <g id="window6">
                <path d="M38.379,149.109l-0.042,-13.854c10.432,-6.366 18.572,0.207 18.572,0.207l0.195,13.75l-18.725,-0.104Z" style="fill:#694c30;"/>
                <path d="M39.65,147.477l-0.037,-11.22c9.145,-5.155 16.281,0.168 16.281,0.168l0.171,11.136l-16.415,-0.084Z" style="fill:#6d6d6d;"/>
            </g>
            <g id="window5">
                <path d="M169.008,146.657l-0.042,-13.854c10.432,-6.366 18.572,0.207 18.572,0.207l0.195,13.75l-18.725,-0.104Z" style="fill:#674a2f;"/>
                <path d="M170.278,145.025l-0.037,-11.22c9.145,-5.155 16.281,0.168 16.281,0.168l0.171,11.136l-16.415,-0.084Z" style="fill:#6d6d6d;"/>
            </g>
            <g id="window4">
                <path d="M352.168,149.109l-0.042,-13.854c10.432,-6.366 18.572,0.207 18.572,0.207l0.195,13.75l-18.725,-0.104Z" style="fill:#664a2f;"/>
                <path d="M353.438,147.477l-0.037,-11.22c9.145,-5.155 16.281,0.168 16.281,0.168l0.171,11.136l-16.415,-0.084Z" style="fill:#6d6d6d;"/>
            </g>
            <g id="window3">
                <path d="M461.057,149.109l-0.042,-13.854c10.432,-6.366 18.572,0.207 18.572,0.207l0.195,13.75l-18.725,-0.104Z" style="fill:#674a2e;"/>
                <path d="M462.327,147.477l-0.037,-11.22c9.145,-5.155 16.281,0.168 16.281,0.168l0.171,11.136l-16.415,-0.084Z" style="fill:#6d6d6d;"/>
            </g>
            <g id="door2">
                <rect x="164.961" y="83.577" width="26.31" height="32.852" style="fill:#4f3319;"/>
                <rect x="167.391" y="85.869" width="21.889" height="30.56" style="fill:#78593d;"/>
            </g>
            <g id="door1">
                <rect x="291.066" y="130.027" width="26.31" height="34.137" style="fill:#4f3319;"/>
                <rect x="293.496" y="132.409" width="21.889" height="31.755" style="fill:#78593d;"/>
            </g>
            <g id="window2">
                <path d="M288.955,102.464l-0.042,-13.854c10.432,-6.366 18.572,0.207 18.572,0.207l0.195,13.75l-18.725,-0.104Z" style="fill:#5a4224;"/>
                <path d="M290.226,100.832l-0.037,-11.22c9.145,-5.155 16.281,0.168 16.281,0.168l0.171,11.136l-16.415,-0.084Z" style="fill:#6d6d6d;"/>
            </g>
            <g id="window1">
                <path d="M381.091,102.464l-0.042,-13.854c10.432,-6.366 18.572,0.207 18.572,0.207l0.195,13.75l-18.725,-0.104Z" style="fill:#644a2b;"/>
                <path d="M382.362,100.832l-0.037,-11.22c9.145,-5.155 16.281,0.168 16.281,0.168l0.171,11.136l-16.415,-0.084Z" style="fill:#6d6d6d;"/>
            </g>
        </g>
        <g id="grain-pile">
            <path id="grain-pile6" d="M85.53,161.796l-0.366,2.675l-79.157,0l0.038,-4.468c0,0 16.615,-1.161 21.403,-0.513c0,0 7.492,0.268 9.766,-0.455c0,0 5.957,-3.139 11.646,0.477c0,0 7.647,1.463 9.685,1.072c0,0 3.302,-0.951 9.979,0.492c0,0 5.055,0.681 8.136,0.646l8.87,0.073Z" style="fill:#f3d987;"/>
            <path id="grain-pile4" d="M85.993,113.922l-0.366,2.675l-79.157,0l0.038,-4.468c0,0 16.615,-1.161 21.403,-0.513c0,0 7.492,0.268 9.766,-0.455c0,0 5.957,-3.139 11.646,0.477c0,0 7.647,1.463 9.685,1.072c0,0 3.302,-0.951 9.979,0.492c0,0 5.055,0.681 8.136,0.646l8.87,0.073Z" style="fill:#f3d987;"/>
            <path id="grain-pile3" d="M240.881,116.597c0,0 16.191,-4.454 26.898,-3.125c0,0 19.197,2.039 22.369,0.765c0,0 19.868,-2.252 27.429,-1.446c0,0 22.109,-0.545 29.113,1.858c0,0 11.993,1.329 14.727,0.757c0,0 15.189,-2.751 20.973,-1.884c0,0 12.001,-0.328 17.339,1.22c0,0 12.684,1.817 19.628,0.605l2.891,1.25l-181.367,0Z" style="fill:#f3d987;"/>
            <path id="grain-pile7" d="M246.509,164.164c0,0 16.191,-4.454 26.898,-3.125c0,0 19.197,2.039 22.369,0.765c0,0 19.868,-2.252 27.429,-1.446c0,0 22.109,-0.545 29.113,1.858c0,0 11.993,1.329 14.727,0.757c0,0 15.189,-2.751 20.973,-1.884c0,0 12.001,-0.328 17.339,1.22c0,0 12.684,1.817 19.628,0.605l2.891,1.25l-181.367,0Z" style="fill:#f3d987;"/>
            <path id="grain-pile2" d="M423.526,116.567c0,0 19.773,0.152 25.642,-1.387c0,0 17.806,-3.364 25.79,-4.566c0,0 5.854,-2.626 15.024,-1.737c0,0 11.334,2.083 17.585,5.127l8.737,2.593l-92.779,-0.029Z" style="fill:#f3d987;"/>
            <path id="grain-pile1" serif:id="grain-pile" d="M226.523,116.597l-119.649,0l-0.692,-3.781c0,0 20.167,0.966 25.569,1.007c0,0 12.387,-1.175 23.336,-1.723c0,0 7.761,-0.96 16.501,-0.22c0,0 9.314,-1.997 16.737,0.409c0,0 3.834,1.341 9.068,1.251c0,0 6.84,-0.224 11.404,0.999c0,0 16.88,2.68 17.725,2.058Z" style="fill:#f3d987;"/>
            <path id="grain-pile5" d="M223.831,164.377l-119.649,0l-0.692,-3.781c0,0 20.167,0.966 25.569,1.007c0,0 12.387,-1.175 23.336,-1.723c0,0 7.761,-0.96 16.501,-0.22c0,0 9.314,-1.997 16.737,0.409c0,0 3.834,1.341 9.068,1.251c0,0 6.84,-0.224 11.404,0.999c0,0 16.88,2.68 17.725,2.058Z" style="fill:#f3d987;"/>
        </g>
        <g id="hopper">
            <path id="hopper-2" d="M85.026,116.289l5.499,-6.613l11.558,-0.406l5.405,7.115l-2.713,2.812l-16.968,0.048l-2.782,-2.956Z" style="fill:#6d6d6d;"/>
            <path id="grain-1floor-left" d="M89.244,109.625l6.828,-0.443c0,0 3.319,5.355 3.643,7.817c0,0 1.274,2.239 1.556,4.28c0,0 2.462,4.048 2.735,11.126c0,0 3.915,11.19 2.629,17.726c0,0 3.881,0.958 3.928,2.675c0,0 5.187,-0.052 7.927,6.191c0,0 5.247,1.545 6.234,5.112l-52.546,0.006c0,0 0.702,-2.909 5.685,-4.375c0,0 0.618,-2.817 6.77,-4.918c0,0 0.457,-2.823 4.742,-4.362c0,0 5.304,-2.226 6.402,-7.923c0,0 0.959,-2.941 -1.286,-9.726c0,0 -1.735,-5.466 -1.357,-11.07c0,0 0.259,-2.651 -1.021,-6.1l-2.869,-6.017Z" style="fill:#f3d987;"/>
            <path id="hopper1" serif:id="hopper" d="M84.95,116.239l2.852,-8.404l-2.856,-14.191l22.643,0.002l-2.813,14.168l2.834,8.519l-1.41,-0l-4.242,-5.675l-11.359,-0.009l-4.183,5.68l-1.465,-0.089Z" style="fill:#808080;"/>
        </g>
        <path id="chute2" d="M221.467,116.318l6.07,-3.037l7.72,-0.148l6.613,3.201l-6.671,4.244l-8.539,-0.004l-5.194,-4.256Z" style="fill:#808080;"/>
        <path id="grain-1floor-central" d="M230.926,112.674c0,0 2.631,5.561 3.352,6.34c1.331,1.438 2.505,8.733 2.906,10.33c0.401,1.597 0.527,2.555 0.527,2.555c0,0 0.743,8.351 0.459,13.473c0,0 6.356,3.863 8.611,6.608c0,0 6.475,3.754 7.177,4.951c0,0 1.464,1.39 1.872,2.934c0,0 6.063,3.369 6.347,4.343l-60.252,0.284c0,0 4.234,-2.614 5.022,-2.792c0,0 1.178,-2.262 2.542,-3.127c0,0 1.85,-1.787 3.757,-2.583c0,0 3.206,-4.812 4.536,-5.584c0,0 2.871,-3.211 5.786,-3.817c0,0 4.225,-0.922 5.734,-4.084c0,0 2.569,-14.189 -0.619,-20.202c0,0 -1.464,-4.032 -1.281,-7.084c0,0 0.128,-1.372 -0.196,-1.765l3.722,-0.781Z" style="fill:#f3d987;"/>
        <path id="chute" d="M226.677,61.978l9.258,0.008l-0.082,6.973c0,0 -0.949,0.001 -0.95,-0.002c-0.001,-0.002 -0.014,41.713 -0.014,41.713l7.016,5.662l-1.072,-0.003l-5.666,-2.842l-7.328,-0.023l-5.3,2.896l-1.082,-0.044l6.351,-5.628l0.004,-41.703l-1.138,-0.009l0.002,-6.997Z" style="fill:#6d6d6d;"/>
        <path id="unloading-grain2" d="M221.872,43.559c0,0 8.175,-0.27 10.531,0.79c2.355,1.06 8.47,-0.743 8.47,-0.743l-0.041,12.951l-18.989,0.259l0.029,-13.257Z" style="fill:#f3d987;"/>
        <path id="unloading-grain1" d="M226.233,56.079l11.173,0.007l-2.797,5.882l-5.587,-0.003l-2.79,-5.885Z" style="fill:#f3d987;"/>
    </g>
</svg>
