<?xml version="1.0" encoding="UTF-8" standalone="no"?>
<!DOCTYPE svg PUBLIC "-//W3C//DTD SVG 1.1//EN" "http://www.w3.org/Graphics/SVG/1.1/DTD/svg11.dtd">
<svg width="100%" height="100%" viewBox="0 0 2280 686" version="1.1" xmlns="http://www.w3.org/2000/svg" xmlns:xlink="http://www.w3.org/1999/xlink" xml:space="preserve" xmlns:serif="http://www.serif.com/" style="fill-rule:evenodd;clip-rule:evenodd;stroke-linejoin:round;stroke-miterlimit:2;">
    <g id="building-wrapper">
        <g id="kiln-tower-scene">
            <rect id="walls" x="25.032" y="273.315" width="2242.508" height="412.21" style="fill:#f9ebc7;"/>
            <path id="roof" d="M2279.341,57.389l0,224.419l-2279.341,-0.032l31.869,-219.703l2247.472,-4.683Z" style="fill:#dd7c02;"/>
            <rect id="_2nd-floor" serif:id="2nd-floor" x="20.257" y="485.672" width="2253.542" height="16.684" style="fill:#dd7c02;"/>
            <rect id="chimney-stack" x="62.447" y="43.493" width="131.455" height="59.919" style="fill:#efdaa5;"/>
            <path id="chimney-stack-roof" d="M58.867,0.144l140.912,-0.144l6.789,23.647l-0.658,24.326l-158.934,-0.453l0.185,-23.606l11.707,-23.771Z" style="fill:#dd7c02;"/>
            <g id="upper-door">
                <path id="door-frame" d="M1016.306,129.626l0,115.622c0,0.624 -0.506,1.129 -1.129,1.129l-98.564,0c-0.624,-0 -1.129,-0.506 -1.129,-1.129l0,-115.622c-0,-0.624 0.506,-1.129 1.129,-1.129l98.564,0c0.624,0 1.129,0.506 1.129,1.129Z" style="fill:#808080;"/>
                <path id="black-door-hole" d="M1007.36,137.888l0,98.319c-0,1.814 -1.471,3.284 -3.284,3.284l-77.854,0c-1.814,-0 -3.284,-1.471 -3.284,-3.284l0,-98.319c-0,-1.814 1.471,-3.284 3.284,-3.284l77.854,0c1.814,-0 3.284,1.471 3.284,3.284Z"/>
                <path d="M1015.294,138.252l58.442,-11.15c1.128,-0.215 2.292,0.083 3.178,0.813c0.886,0.73 1.401,1.816 1.405,2.964l0.444,117.303c0.004,1.149 -0.504,2.241 -1.386,2.977c-0.882,0.737 -2.047,1.042 -3.177,0.833l-58.759,-10.88c-1.828,-0.338 -3.155,-1.931 -3.157,-3.79l-0.127,-95.273c-0.002,-1.855 1.315,-3.449 3.137,-3.797Z" style="fill:#808080;"/>
            </g>
            <g id="window7">
                <path d="M162.101,426.932l-0.176,-57.725c43.465,-26.523 77.383,0.863 77.383,0.863l0.815,57.293l-78.022,-0.431Z" style="fill:#67492d;"/>
                <path d="M167.395,420.133l-0.154,-46.75c38.103,-21.481 67.837,0.699 67.837,0.699l0.714,46.401l-68.398,-0.349Z" style="fill:#6d6d6d;"/>
            </g>
            <g id="window6">
                <path d="M159.913,621.287l-0.176,-57.725c43.465,-26.523 77.383,0.863 77.383,0.863l0.815,57.293l-78.022,-0.431Z" style="fill:#694c30;"/>
                <path d="M165.207,614.488l-0.154,-46.75c38.103,-21.481 67.837,0.699 67.837,0.699l0.714,46.401l-68.398,-0.349Z" style="fill:#6d6d6d;"/>
            </g>
            <g id="window5">
                <path d="M704.198,611.072l-0.176,-57.725c43.465,-26.523 77.383,0.863 77.383,0.863l0.815,57.293l-78.022,-0.431Z" style="fill:#674a2f;"/>
                <path d="M709.492,604.273l-0.154,-46.75c38.103,-21.481 67.837,0.699 67.837,0.699l0.714,46.401l-68.398,-0.349Z" style="fill:#6d6d6d;"/>
            </g>
            <g id="window4">
                <path d="M1467.366,621.287l-0.176,-57.725c43.465,-26.523 77.383,0.863 77.383,0.863l0.815,57.293l-78.022,-0.431Z" style="fill:#664a2f;"/>
                <path d="M1472.659,614.488l-0.154,-46.75c38.103,-21.481 67.837,0.699 67.837,0.699l0.714,46.401l-68.398,-0.349Z" style="fill:#6d6d6d;"/>
            </g>
            <g id="window3">
                <path d="M1921.071,621.287l-0.176,-57.725c43.465,-26.523 77.383,0.863 77.383,0.863l0.815,57.293l-78.022,-0.431Z" style="fill:#674a2e;"/>
                <path d="M1926.364,614.488l-0.154,-46.75c38.103,-21.481 67.837,0.699 67.837,0.699l0.714,46.401l-68.398,-0.349Z" style="fill:#6d6d6d;"/>
            </g>
            <g id="door2">
                <rect x="687.336" y="348.238" width="109.625" height="136.885" style="fill:#4f3319;"/>
                <rect x="697.463" y="357.789" width="91.203" height="127.334" style="fill:#78593d;"/>
            </g>
            <g id="door1">
                <rect x="1212.773" y="541.779" width="109.625" height="142.237" style="fill:#4f3319;"/>
                <rect x="1222.901" y="551.703" width="91.203" height="132.313" style="fill:#78593d;"/>
            </g>
            <g id="window2">
                <path d="M1203.98,426.932l-0.176,-57.725c43.465,-26.523 77.383,0.863 77.383,0.863l0.815,57.293l-78.022,-0.431Z" style="fill:#5a4224;"/>
                <path d="M1209.274,420.133l-0.154,-46.75c38.103,-21.481 67.837,0.699 67.837,0.699l0.714,46.401l-68.398,-0.349Z" style="fill:#6d6d6d;"/>
            </g>
            <g id="window1">
                <path d="M1587.88,426.932l-0.176,-57.725c43.465,-26.523 77.383,0.863 77.383,0.863l0.815,57.293l-78.022,-0.431Z" style="fill:#644a2b;"/>
                <path d="M1593.174,420.133l-0.154,-46.75c38.103,-21.481 67.837,0.699 67.837,0.699l0.714,46.401l-68.398,-0.349Z" style="fill:#6d6d6d;"/>
            </g>
        </g>
        <g id="grain-pile">
            <path id="grain-pile6" d="M356.376,674.15l-1.525,11.145l-329.82,0l0.158,-18.617c0,0 69.231,-4.839 89.178,-2.137c0,0 31.215,1.116 40.692,-1.898c0,0 24.821,-13.078 48.524,1.989c0,0 31.861,6.096 40.355,4.468c0,0 13.759,-3.961 41.579,2.051c0,0 21.062,2.836 33.9,2.693l36.959,0.306Z" style="fill:#f3d987;"/>
            <path id="grain-pile4" d="M358.303,474.675l-1.525,11.145l-329.82,0l0.158,-18.617c0,0 69.231,-4.839 89.178,-2.137c0,0 31.215,1.116 40.692,-1.898c0,0 24.821,-13.078 48.524,1.989c0,0 31.861,6.096 40.355,4.468c0,0 13.759,-3.961 41.579,2.051c0,0 21.062,2.836 33.9,2.693l36.959,0.306Z" style="fill:#f3d987;"/>
            <path id="grain-pile3" d="M1003.67,485.819c0,0 67.461,-18.56 112.076,-13.021c0,0 79.989,8.497 93.203,3.188c0,0 82.782,-9.385 114.288,-6.026c0,0 92.121,-2.272 121.303,7.74c0,0 49.97,5.538 61.364,3.153c0,0 63.286,-11.463 87.388,-7.848c0,0 50.003,-1.368 72.244,5.085c0,0 52.852,7.572 81.784,2.523l12.047,5.207l-755.698,0Z" style="fill:#f3d987;"/>
            <path id="grain-pile7" d="M1027.119,684.016c0,0 67.461,-18.56 112.076,-13.021c0,0 79.989,8.497 93.203,3.188c0,0 82.782,-9.385 114.288,-6.026c0,0 92.121,-2.272 121.303,7.74c0,0 49.97,5.538 61.364,3.153c0,0 63.286,-11.463 87.388,-7.848c0,0 50.003,-1.368 72.244,5.085c0,0 52.852,7.572 81.784,2.523l12.047,5.207l-755.698,0Z" style="fill:#f3d987;"/>
            <path id="grain-pile2" d="M1764.691,485.697c0,0 82.386,0.633 106.843,-5.779c0,0 74.19,-14.017 107.459,-19.024c0,0 24.39,-10.941 62.602,-7.24c0,0 47.226,8.677 73.269,21.361l36.405,10.803l-386.578,-0.122Z" style="fill:#f3d987;"/>
            <path id="grain-pile1" serif:id="grain-pile" d="M943.846,485.819l-498.536,0l-2.883,-15.753c0,0 84.028,4.023 106.538,4.196c0,0 51.612,-4.894 97.232,-7.179c0,0 32.336,-3.998 68.754,-0.918c0,0 38.808,-8.32 69.737,1.705c0,0 15.977,5.589 37.785,5.212c0,0 28.502,-0.934 47.518,4.163c0,0 70.334,11.168 73.856,8.574Z" style="fill:#f3d987;"/>
            <path id="grain-pile5" d="M932.631,684.904l-498.536,0l-2.883,-15.753c0,0 84.028,4.023 106.538,4.196c0,0 51.612,-4.894 97.232,-7.179c0,0 32.336,-3.998 68.754,-0.918c0,0 38.808,-8.32 69.737,1.705c0,0 15.977,5.589 37.785,5.212c0,0 28.502,-0.934 47.518,4.163c0,0 70.334,11.168 73.856,8.574Z" style="fill:#f3d987;"/>
        </g>
        <g id="hopper">
            <path id="hopper-2" d="M354.275,484.538l22.913,-27.555l48.16,-1.692l22.523,29.647l-11.305,11.716l-70.7,0.2l-11.591,-12.315Z" style="fill:#6d6d6d;"/>
            <path id="grain-1floor-left" d="M371.849,456.772l28.449,-1.846c0,0 13.83,22.314 15.18,32.572c0,0 5.307,9.327 6.484,17.832c0,0 10.257,16.866 11.395,46.359c0,0 16.314,46.624 10.955,73.857c0,0 16.17,3.992 16.366,11.147c0,0 21.612,-0.218 33.027,25.795c0,0 21.862,6.435 25.975,21.298l-218.943,0.027c0,0 2.927,-12.121 23.687,-18.229c0,0 2.575,-11.736 28.209,-20.491c0,0 1.905,-11.764 19.757,-18.175c0,0 22.102,-9.275 26.675,-33.011c0,0 3.996,-12.253 -5.356,-40.523c0,0 -7.23,-22.775 -5.653,-46.124c0,0 1.08,-11.047 -4.253,-25.418l-11.954,-25.071Z" style="fill:#f3d987;"/>
            <path id="hopper1" serif:id="hopper" d="M353.96,484.327l11.882,-35.019l-11.901,-59.129l94.347,0.007l-11.723,59.032l11.809,35.496l-5.874,-0.002l-17.676,-23.647l-47.327,-0.036l-17.431,23.667l-6.105,-0.369Z" style="fill:#808080;"/>
        </g>
        <path id="chute2" d="M922.777,484.659l25.293,-12.654l32.168,-0.617l27.556,13.336l-27.798,17.684l-35.578,-0.017l-21.641,-17.732Z" style="fill:#808080;"/>
        <path id="grain-1floor-central" d="M962.19,469.475c0,0 10.961,23.172 13.967,26.418c5.547,5.99 10.436,36.387 12.109,43.04c1.673,6.653 2.196,10.647 2.196,10.647c0,0 3.097,34.797 1.913,56.139c0,0 26.483,16.097 35.878,27.532c0,0 26.978,15.642 29.905,20.63c0,0 6.099,5.793 7.799,12.226c0,0 25.263,14.037 26.448,18.097l-251.051,1.185c0,0 17.644,-10.893 20.923,-11.631c0,0 4.908,-9.425 10.591,-13.03c0,0 7.707,-7.448 15.653,-10.762c0,0 13.36,-20.052 18.9,-23.267c0,0 11.963,-13.377 24.106,-15.905c0,0 17.602,-3.842 23.89,-17.017c0,0 10.703,-59.123 -2.581,-84.177c0,0 -6.099,-16.8 -5.336,-29.516c0,0 0.532,-5.718 -0.818,-7.355l15.508,-3.253Z" style="fill:#f3d987;"/>
        <path id="chute" d="M944.486,258.24l38.575,0.033l-0.34,29.053c0,0 -3.955,0.003 -3.959,-0.008c-0.004,-0.01 -0.057,173.805 -0.057,173.805l29.234,23.593l-4.466,-0.011l-23.608,-11.841l-30.535,-0.097l-22.085,12.065l-4.507,-0.185l26.463,-23.45l0.017,-173.763l-4.742,-0.039l0.009,-29.156Z" style="fill:#6d6d6d;"/>
        <path id="grain2" d="M924.465,181.497c0,0 34.063,-1.123 43.877,3.293c9.814,4.416 35.291,-3.095 35.291,-3.095l-0.17,53.962l-79.121,1.078l0.122,-55.238Z" style="fill:#f3d987;"/>
        <path id="grain1" d="M942.638,233.663l46.555,0.028l-11.654,24.509l-23.277,-0.014l-11.624,-24.523Z" style="fill:#f3d987;"/>
    </g>
</svg>
