<?xml version="1.0" encoding="UTF-8" standalone="no"?>
<!DOCTYPE svg PUBLIC "-//W3C//DTD SVG 1.1//EN" "http://www.w3.org/Graphics/SVG/1.1/DTD/svg11.dtd">
<svg width="100%" height="100%" viewBox="0 0 2481 1749" version="1.1" xmlns="http://www.w3.org/2000/svg" xmlns:xlink="http://www.w3.org/1999/xlink" xml:space="preserve" xmlns:serif="http://www.serif.com/" style="fill-rule:evenodd;clip-rule:evenodd;stroke-linecap:round;stroke-linejoin:round;stroke-miterlimit:1.5;">
    <g id="floor-plan-base">
        <g id="floor">
            <rect x="524.368" y="765.526" width="1816.1" height="451.01" style="fill:#efc462;"/>
        </g>
        <g id="walls">
            <path d="M520.118,761.645l0.26,454.192l318.124,-1.572l-13.078,-36.581l-74.256,-0.065l-0.561,-82.28l-86.055,-0.178l-0.213,90.689l-132.386,0.833l-0.233,-135.238l218.549,0.087l0.031,-71.157l-29.757,-0.096l-0.085,47.305l-177.078,0.067l-0.09,-224.229l59.238,-0.035l283.477,-0.277l-0.131,11.808l35.325,0.197l0.101,-11.915l141.668,-0.085l0.155,13.101l35.345,-0.022l0.088,-12.953l141.675,0.038l0.246,16.666l35.101,-0.141l-0.037,-16.586l248.176,0.134l0.102,259.713l35.287,0.21l0.266,-260.121l247.864,0.024l0.07,247.933l47.08,0.085l0.098,-247.921l200.521,0.106l0.459,247.864l82.397,-0.177l0.086,-35.276l-35.603,-0.069l-0.046,-212.454l188.898,-0.056l0.39,212.704l-23.883,0.008l0.142,35.25l23.663,-0.03l0.065,165.445l-200.942,-0.017l0.098,-106.464l-47.679,0.33l0.199,23.511l16.575,0.093l0.067,70.694l-205.669,0.157l0.28,-82.806l-47.4,-0.216l-0.19,82.871l-247.813,-0.093l0.176,-94.259l-23.834,0.093l0.053,46.856l-35.45,0.108l0.157,35.327l-224.634,0.212l0.009,-23.717l-26.033,0.124l0.056,47.161l-68.452,0.013l-0.084,-35.522l-302.323,-3.491l-9.449,36.614l252.756,2.418l0,11.755l401.575,0l0,17.717l484.252,0l330.709,1.181l0,-491.339l-1818.465,5.74Z" style="fill:#cab391;stroke:#cab391;stroke-width:8.33px;"/>
        </g>
    </g>
    <g id="Layer4">
        <path id="kiln-base" d="M760.63,408.964l-6.496,-0.007l0,-14.469l64.37,-11.22l0,-27.165l12.402,0l0,27.313l62.008,11.073l0,12.992l-5.02,0l0.148,122.539l20.079,0l-0.148,16.535l-8.858,0l9.006,43.996l-18.159,0l-10.039,-43.701l-111.024,0l-12.992,43.701l-14.173,0l8.858,-43.701l-11.22,0l0,-16.831l21.26,-0l0,-121.056Zm10.63,121.056l105.709,0l-0,-121.063l-51.378,-0.024l-0,25.713l-7.087,0l-0.148,-25.615l-47.096,-0.054l0,121.043Z" style="fill:#978871;"/>
        <rect id="kiln-base-shadow" x="739.37" y="536.218" width="168.75" height="10.624" style="fill:#61503b;"/>
        <rect id="kiln-plank6" x="779.528" y="433.898" width="11.811" height="90.601" style="fill:#978871;"/>
        <rect id="kiln-plank5" x="797.244" y="433.898" width="11.811" height="90.601" style="fill:#978871;"/>
        <rect id="kiln-plank4" x="813.78" y="434.227" width="11.811" height="90.601" style="fill:#978871;"/>
        <rect id="kiln-plank3" x="830.315" y="434.227" width="11.811" height="90.601" style="fill:#978871;"/>
        <rect id="kiln-plaink2" x="846.85" y="434.227" width="11.811" height="90.601" style="fill:#978871;"/>
        <rect id="kiln-plank1" x="862.205" y="434.227" width="11.811" height="90.601" style="fill:#978871;"/>
        <g id="kiln-horizontal-planks">
            <rect x="776.373" y="448.819" width="98.824" height="7.169" style="fill:#61503b;"/>
            <rect x="776.373" y="507.792" width="98.824" height="7.169" style="fill:#61503b;"/>
        </g>
        <rect id="kiln-wheel-base" x="818.356" y="408.957" width="11.959" height="25.27" style="fill:#61503b;"/>
        <g id="kiln-grain-pile">
            <path d="M794.882,592.913l62.008,0.591c0,0 -22.312,-26.584 -28.937,-24.213c-6.625,2.372 -17.494,9.936 -21.26,12.402c-3.765,2.466 -11.811,11.22 -11.811,11.22Z" style="fill:#f4cf83;"/>
            <g id="Layer7">
                <path d="M809.055,524.87l34.843,0c0,0 -12.91,22.23 -14.173,24.803c-1.263,2.574 -2.398,1.112 -3.839,4.134c0,0 -6.152,0.966 -6.201,-2.362c0,0 -3.891,-11.561 -6.496,-13.583c0,0 -4.984,-9.932 -4.134,-12.992Z" style="fill:#f4cf83;"/>
                <path d="M828.919,553.498c0.911,-0.356 2.011,0.28 2.456,1.418c0.445,1.138 0.066,2.352 -0.844,2.707c-0.911,0.356 -2.011,-0.28 -2.456,-1.418c-0.445,-1.138 -0.066,-2.352 0.844,-2.707Z" style="fill:#f4cf83;"/>
                <path d="M820.599,564.071c0.777,0.244 1.132,1.326 0.79,2.414c-0.341,1.088 -1.25,1.774 -2.027,1.53c-0.777,-0.244 -1.132,-1.326 -0.79,-2.414c0.341,-1.088 1.25,-1.774 2.027,-1.53Z" style="fill:#f4cf83;"/>
            </g>
        </g>
    </g>
    <g id="the-old-klin">
        <path id="kiln-base1" serif:id="kiln-base" d="M601.181,864.718l-3.248,-0.004l0,-7.234l32.185,-5.61l0,-13.583l6.201,0l0,13.656l31.004,5.536l0,6.496l-2.51,0l0.074,61.27l10.039,0l-0.074,8.268l-4.429,0l4.503,21.998l-9.08,0l-5.02,-21.85l-55.512,0l-6.496,21.85l-7.087,0l4.429,-21.85l-5.61,0l0,-8.415l10.63,-0l0,-60.528Zm5.315,60.528l52.854,0l0,-60.531l-25.689,-0.012l-0,12.856l-3.543,0l-0.074,-12.808l-23.548,-0.027l0,60.522Z" style="fill:#978871;"/>
        <rect id="kiln-base-shadow1" serif:id="kiln-base-shadow" x="590.551" y="928.345" width="84.375" height="5.312" style="fill:#61503b;"/>
        <rect id="kiln-plank61" serif:id="kiln-plank6" x="610.63" y="877.185" width="5.906" height="45.301" style="fill:#978871;"/>
        <rect id="kiln-plank51" serif:id="kiln-plank5" x="619.488" y="877.185" width="5.906" height="45.301" style="fill:#978871;"/>
        <rect id="kiln-plank41" serif:id="kiln-plank4" x="627.756" y="877.35" width="5.906" height="45.301" style="fill:#978871;"/>
        <rect id="kiln-plank31" serif:id="kiln-plank3" x="636.024" y="877.35" width="5.906" height="45.301" style="fill:#978871;"/>
        <rect id="kiln-plank2" x="644.291" y="877.35" width="5.906" height="45.301" style="fill:#978871;"/>
        <rect id="kiln-plank11" serif:id="kiln-plank1" x="651.969" y="877.35" width="5.906" height="45.301" style="fill:#978871;"/>
        <g id="horizontal-planks">
            <rect x="609.053" y="884.646" width="49.412" height="3.584" style="fill:#61503b;"/>
            <rect x="609.053" y="914.132" width="49.412" height="3.584" style="fill:#61503b;"/>
        </g>
        <rect id="press-screw-base" x="630.044" y="864.715" width="5.979" height="12.635" style="fill:#61503b;"/>
        <g id="klin-grain-pile">
            <path d="M618.307,956.693l31.004,0.295c0,0 -11.156,-13.292 -14.469,-12.106c-3.312,1.186 -8.747,4.968 -10.63,6.201c-1.883,1.233 -5.906,5.61 -5.906,5.61Z" style="fill:#f4cf83;"/>
            <g id="Layer71" serif:id="Layer7">
                <path d="M625.394,922.671l17.421,0c0,0 -6.455,11.115 -7.087,12.402c-0.631,1.287 -1.199,0.556 -1.919,2.067c0,0 -3.076,0.483 -3.1,-1.181c0,0 -1.946,-5.78 -3.248,-6.791c0,0 -2.492,-4.966 -2.067,-6.496Z" style="fill:#f4cf83;"/>
                <path d="M635.325,936.985c0.455,-0.178 1.006,0.14 1.228,0.709c0.222,0.569 0.033,1.176 -0.422,1.354c-0.455,0.178 -1.006,-0.14 -1.228,-0.709c-0.222,-0.569 -0.033,-1.176 0.422,-1.354Z" style="fill:#f4cf83;"/>
                <path d="M631.166,942.272c0.389,0.122 0.566,0.663 0.395,1.207c-0.171,0.544 -0.625,0.887 -1.014,0.765c-0.389,-0.122 -0.566,-0.663 -0.395,-1.207c0.171,-0.544 0.625,-0.887 1.014,-0.765Z" style="fill:#f4cf83;"/>
            </g>
        </g>
    </g>
    <g id="freight-elevator">
        <path id="lift-cables" d="M2114.173,1162.245l23.622,-63.82l53.065,-23.622l0.147,-47.244l2.3,0l0,47.244l54.331,20.079l20.079,64.961" style="fill:none;stroke:#6f4a34;stroke-width:4.17px;"/>
        <rect id="lift-frame-right" x="2131.024" y="1069.554" width="14.313" height="119.47" style="fill:#805a43;"/>
        <rect id="lift-frame-left" x="2241.593" y="1069.554" width="14.313" height="119.47" style="fill:#805a43;"/>
        <g id="elevator-cargo">
            <ellipse id="pile-left" cx="2215.157" cy="1112.008" rx="15.945" ry="7.677" style="fill:#f4cf83;"/>
            <ellipse id="pile-right" cx="2169.39" cy="1112.068" rx="15.945" ry="7.677" style="fill:#f4cf83;"/>
            <path id="bag-left" d="M2188.583,1133.563l0,24.213c0,5.052 -4.102,9.154 -9.154,9.154l-18.307,0c-5.052,0 -9.154,-4.102 -9.154,-9.154l0,-24.213c0,-5.052 4.102,-9.154 9.154,-9.154l18.307,0c5.052,0 9.154,4.102 9.154,9.154Z" style="fill:#b18850;"/>
            <path id="bag-top-left" d="M2196.847,1112.092l37.205,-0.025c0.706,-0 1.338,0.435 1.589,1.095c0.251,0.659 0.069,1.405 -0.458,1.875l-9.296,8.274c-0.311,0.277 -0.713,0.43 -1.129,0.43l-18.602,0.012c-0.416,0 -0.818,-0.152 -1.129,-0.429l-9.307,-8.262c-0.528,-0.468 -0.711,-1.214 -0.461,-1.874c0.25,-0.66 0.882,-1.096 1.588,-1.097Z" style="fill:#b18850;"/>
            <path id="bag-top-right" d="M2151.082,1112.092l37.205,-0.025c0.706,-0 1.338,0.435 1.589,1.095c0.251,0.659 0.069,1.405 -0.458,1.875l-9.296,8.274c-0.311,0.277 -0.713,0.43 -1.129,0.43l-18.602,0.012c-0.416,0 -0.818,-0.152 -1.129,-0.429l-9.307,-8.262c-0.528,-0.468 -0.711,-1.214 -0.461,-1.874c0.25,-0.66 0.882,-1.096 1.588,-1.097Z" style="fill:#b18850;"/>
            <path id="bag-right" d="M2234.055,1133.563l0,24.213c0,5.052 -4.102,9.154 -9.154,9.154l-18.307,0c-5.052,0 -9.154,-4.102 -9.154,-9.154l0,-24.213c0,-5.052 4.102,-9.154 9.154,-9.154l18.307,0c5.052,0 9.154,4.102 9.154,9.154Z" style="fill:#b18850;"/>
            <path id="cord-right" d="M2225.197,1123.893l0,0.738c0,0.204 -0.165,0.369 -0.369,0.369l-19.341,0c-0.204,0 -0.369,-0.165 -0.369,-0.369l0,-0.738c0,-0.204 0.165,-0.369 0.369,-0.369l19.341,0c0.204,0 0.369,0.165 0.369,0.369Z" style="fill:#805a43;"/>
            <path id="cord-left" d="M2179.429,1123.893l0,0.738c0,0.204 -0.165,0.369 -0.369,0.369l-19.341,0c-0.204,0 -0.369,-0.165 -0.369,-0.369l0,-0.738c0,-0.204 0.165,-0.369 0.369,-0.369l19.341,0c0.204,0 0.369,0.165 0.369,0.369Z" style="fill:#805a43;"/>
        </g>
        <rect id="lift-base" x="2114.173" y="1157.48" width="157.934" height="14.758" style="fill:#a57c51;"/>
    </g>
    <g id="funace-area">
        <path id="furnace-structure" d="M2219.291,857.48l40.157,-0l0,93.307l-127.559,0l0,-93.307l37.795,0l0,-46.063l49.606,0l0,46.063Z" style="fill:#a16a3e;"/>
        <clipPath id="_clip1">
            <path id="furnace-structure1" serif:id="furnace-structure" d="M2219.291,857.48l40.157,-0l0,93.307l-127.559,0l0,-93.307l37.795,0l0,-46.063l49.606,0l0,46.063Z"/>
        </clipPath>
        <g clip-path="url(#_clip1)">
            <path id="fireplace-frame" d="M2228.74,937.795c0,0 -67.519,-0.281 -67.323,0c0.196,0.281 0,-46.063 0,-46.063c0,0 29.44,-29.002 67.323,0l-0,46.063Z" style="fill:#74756d;"/>
            <path id="fireplace" d="M2222.835,933.07c0,0 -56.858,-0.236 -56.693,0c0.165,0.236 -0,-38.975 -0,-38.975c0,0 24.792,-23.852 56.693,0.422l-0,38.553Z" style="fill:#e7bb49;"/>
            <path id="flames" d="M2176.772,933.071c0,0 -8.004,-10.853 -1.181,-20.079c0,0 7.498,-5.566 4.724,-12.992c0,0 4.972,0.663 5.906,7.087c0,0 11.256,-8.558 8.268,-15.354c0,0 9.532,8.535 5.906,15.354c0,0 5.833,-2.673 4.724,-9.449c0,0 15.751,16.435 5.906,31.89c0,0 -3.109,3.607 -2.362,3.543l-5.906,0c0,0 -0.255,-5.643 -1.181,-8.268c-1.181,-3.346 -8.451,-6.733 -5.906,-11.811c0,0 -13.008,9.41 -10.63,20.079l-8.268,0Z" style="fill:#db5a06;"/>
        </g>
        <path id="funace-door" d="M2275.984,937.797c0,0 -47.388,-3.883 -47.244,-3.647c0.145,0.236 0,-38.68 0,-38.68c0,0 21.692,-24.353 49.606,0l-2.362,42.327Z" style="fill:#74756d;"/>
        <path id="fireplace-door-shade" d="M2275.984,937.797c0,0 -47.388,-3.883 -47.244,-3.647c0.145,0.236 0,-38.68 0,-38.68l47.244,42.327Z" style="fill:#696b62;"/>
    </g>
    <g id="grain-mounds-container">
        <g id="pile5">
            <path d="M996.85,1153.937c0,0 33.716,10.718 37.795,11.811c0,0 18.369,4.541 24.803,3.543c0,0 13.062,6.022 18.898,7.087c0,0 18.685,2.856 25.984,0c0,0 15.499,-6.127 17.717,-8.268c0,0 35.729,-1.713 41.339,-2.362c0,0 3.401,1.774 1.181,-7.087c0,0 -38.307,-46.625 -47.244,-50.787c0,0 -15.481,-11.156 -34.252,-7.087c0,0 -18.025,5.456 -25.984,17.717c0,0 -8.869,-1.952 -22.441,7.087l-37.795,28.346Z" style="fill:#f4cf83;"/>
            <path d="M1087.795,1100.787c0,0 39.391,53.072 34.252,63.78c0,0 38.019,2.994 41.339,-1.181c0,0 12.831,0.285 -9.449,-17.717c0,0 -39.97,-46.619 -55.512,-43.701l-10.63,-1.181Z" style="fill:#bd8e3c;"/>
            <path d="M1042.347,1122.047c0,0 41.892,40.52 32.456,49.732c0,0 7.661,5.114 15.748,3.336c0,0 17.071,0.127 19.685,-5.824c0,0 -1.495,-6.894 -5.532,-11.811c0,0 -27.252,-24.098 -37.645,-30.004c-7.333,-4.167 -24.713,-5.429 -24.713,-5.429Z" style="fill:#bd8e3c;"/>
        </g>
        <g id="pile4">
            <path d="M938.976,1104.331c0,0 22.271,-1.425 23.622,-3.543c0,0 32.51,1.113 35.433,-2.362c0,0 -12.856,-24.339 -26.537,-29.528c0,0 -20.761,-22.992 -26.612,-17.717c0,0 -30.061,-31.321 -47.244,-23.622c0,0 -70.861,45.332 -67.825,70.866c0,0 38.79,9.149 50.108,5.906l59.055,0Z" style="fill:#f4cf83;"/>
            <path d="M897.638,1036.883c0,0 5.107,-5.487 23.622,2.488c0,0 13.571,4.487 17.717,15.25c0,0 -23.435,15.451 -25.984,19.002c-2.55,3.551 9.941,-13.997 12.992,-15.354c0,0 -5.321,-10.641 -11.811,-9.449c0,0 -22.368,-7.51 -16.535,-11.811l0,-0.125Z" style="fill:#bd8e3c;"/>
            <path d="M951.969,1058.268c0,0 20.387,8.255 30.709,25.28c0,0 11.275,11.867 14.173,13.789c0,0 -24.151,5.205 -31.89,2.578c0,0 7.684,-1.874 17.717,-2.578c0,0 10.602,0.564 7.087,-1.149c0,0 -38.709,-35.848 -37.795,-37.92Z" style="fill:#bd8e3c;"/>
            <path d="M904.724,1083.071c0,0 -13.579,16.936 -15.354,18.898c0,0 -7.12,1.171 -9.449,1.181c-2.329,0.011 6.764,-1.119 24.803,-20.079Z" style="fill:#bd8e3c;"/>
        </g>
        <g id="pile3">
            <path d="M824.409,898.819c0,0 -20.079,1.185 -43.701,33.071c0,0 -31.61,23.578 -31.89,31.89c0,0 24.489,13.358 46.063,9.449c0,0 36.403,4.948 49.606,0c0,0 38.16,-1.128 43.701,-9.449c0,0 -6.426,-20.274 -20.079,-26.656c0,0 -9.89,-20.91 -28.346,-25.312c0,0 -11.213,-14.652 -15.354,-12.992Z" style="fill:#f4cf83;"/>
            <path d="M825,898.819c5.512,2.756 32.506,14.553 41.929,36.614c0,0 17.899,12.625 19.488,22.441c0,0 12.563,9.65 2.953,9.449c0,0 -23.316,7.531 -31.89,4.724c0,0 -12.333,2.414 -11.811,-1.181c0,0 6.19,-13.859 3.543,-20.079c0,0 -9.779,-28.038 -15.354,-31.89c-0.414,0.984 -14.37,-22.835 -8.858,-20.079Z" style="fill:#bd8e3c;"/>
            <path d="M928.346,1061.811l-8.268,0" style="fill:none;"/>
        </g>
        <g id="pile2">
            <path d="M1124.108,874.016c0,0 -10.445,-3.192 2.123,-11.811c0,0 33.349,-41.549 57.265,-45.82c0,0 12.54,-6.984 50.551,22.198c0,0 44.031,36.5 17.922,35.433c0,0 -71.854,4.716 -82.677,2.663l-45.184,-2.663Z" style="fill:#f4cf83;"/>
            <path d="M1218.898,875.197c0,0 35.749,2.407 38.976,-1.181c0,0 8.737,-4.275 -5.906,-17.717c0,0 -29.819,-38.452 -51.969,-37.795c0,0 -3.321,-3.717 -10.63,-2.362c0,0 -0.868,7.76 12.992,10.63c0,0 27.406,7.862 21.26,23.622c0,0 -11.373,21.31 -4.724,24.803Z" style="fill:#bd8e3c;"/>
        </g>
        <g id="pile1">
            <path d="M817.323,820.866c0,0 -11.016,-10.83 -22.441,1.181c0,0 -26.426,15.55 -33.071,29.528c0,0 -13.562,22.497 -21.26,24.803c0,0 -7.662,7.477 1.181,5.906c0,0 35.041,6.416 47.244,3.543c0,0 38.393,3.259 46.063,-3.543c0,0 17.956,-0.898 28.346,-1.181c0,0 14.098,1.216 3.543,-11.811c0,0 -12.335,-19.618 -22.441,-25.984c0,0 -20.524,-23.889 -27.165,-22.441Z" style="fill:#f4cf83;"/>
            <path d="M809.055,820.082c1.146,-1.029 16.568,-3.338 40.157,25.984c0,0 30.132,29.821 24.803,33.855c0,0 -14.414,3.033 -20.079,2.362c0,0 -21.224,1.128 -22.441,-1.966c0,0 4.461,-9.169 1.181,-14.173c0,0 -6.156,-18.824 -10.63,-24.803c0,0 -18.058,-16.711 -12.992,-21.26Z" style="fill:#bd8e3c;"/>
        </g>
    </g>
    <g id="wheel">
        <ellipse id="wheel-outer" cx="1970.876" cy="918.724" rx="67.138" ry="66.442" style="fill:#23201a;"/>
        <ellipse id="wheel-middle" cx="1971.212" cy="919.124" rx="60.437" ry="58.243" style="fill:#6b4826;"/>
        <rect id="wheel-spoke4" x="1969.015" y="863.11" width="6.424" height="114.026" style="fill:#d0b78e;"/>
        <path id="wheel-spoke3" d="M2014.798,882.064l-80.597,80.66l-4.544,-4.541l80.597,-80.66l4.544,4.541Z" style="fill:#d0b78e;"/>
        <path id="wheel-spoke2" d="M2029.266,922.843l-114.021,0.983l-0.055,-6.424l114.021,-0.983l0.055,6.424Z" style="fill:#d0b78e;"/>
        <path id="wheel-spoke1" d="M2010.983,962.061l-81.976,-79.257l4.465,-4.618l81.976,79.257l-4.465,4.618Z" style="fill:#d0b78e;"/>
        <ellipse id="wheel-center" cx="1971.26" cy="920.079" rx="14.454" ry="13.651" style="fill:#f7eed5;"/>
        <rect id="wheel-base" x="1909.331" y="980.095" width="125.793" height="10.142" style="fill:#23201a;"/>
    </g>
    <g id="transport-cart">
        <rect id="cart-base" x="1346.457" y="1110.499" width="47.244" height="7.087" style="fill:#849ba6;"/>
        <path id="cart-body-hand2" d="M1322.835,1054.988l16.435,54.281l-7.966,2.412l-16.435,-54.281l7.966,-2.412Z" style="fill:#849ba6;"/>
        <rect id="cart-body-hand" x="1302.756" y="1054.988" width="20.079" height="8.268" style="fill:#849ba6;"/>
        <ellipse id="cart-wheel-left" cx="1337.894" cy="1123.491" rx="15.059" ry="15.354" style="fill:#849ba6;"/>
        <ellipse id="cart-wheel-right" cx="1399.606" cy="1123.491" rx="14.173" ry="15.354" style="fill:#849ba6;"/>
        <circle id="cart-wheel-inside-left" cx="1337.598" cy="1124.082" r="11.22" style="fill:#f4cf83;"/>
        <circle id="cart-wheel-inside-right" cx="1399.606" cy="1123.491" r="11.22" style="fill:#f4cf83;"/>
        <path id="cart-pile1" d="M1335.827,1064.436c0,0 14.356,-21.313 34.252,-28.346c0,0 10.35,-6.914 29.528,7.087c0,0 17.725,17.705 15.354,22.441c0,0 -67.699,9.126 -79.134,-1.181Z" style="fill:#f4cf83;"/>
        <path id="cart-pile2" d="M1377.165,1034.909c0,0 13.566,-0.698 24.803,11.811c0,0 16.309,15.29 12.992,18.898c0,0 -22.208,5.315 -21.26,1.181c0,0 2.286,-16.83 -4.724,-21.26c0,0 -15.736,-7.895 -11.811,-10.63Z" style="fill:#bd8e3c;"/>
        <path id="cart-body" d="M1334.646,1063.255l82.677,0l-12.011,41.339l-58.655,0l-12.011,-41.339Z" style="fill:#849ba6;"/>
    </g>
</svg>
